<svg preserveAspectRatio="none" width="100%" height="100%" overflow="visible" style="display: block;" viewBox="0 0 24 24" fill="none" xmlns="http://www.w3.org/2000/svg">
<g id="Frame">
<path id="Vector" d="M8.8115 21.8652L7.027 18.8577L3.6385 18.1152L3.96925 14.627L1.67325 12L3.96925 9.373L3.6385 5.88475L7.027 5.14225L8.8115 2.13475L12 3.4885L15.1885 2.13475L16.973 5.14225L20.3615 5.88475L20.0308 9.373L22.3268 12L20.0308 14.627L20.3615 18.1152L16.973 18.8577L15.1885 21.8652L12 20.5115L8.8115 21.8652ZM9.45 19.95L12 18.8693L14.5808 19.95L16 17.55L18.75 16.9193L18.5 14.1L20.35 12L18.5 9.86925L18.75 7.05L16 6.45L14.55 4.05L12 5.13075L9.41925 4.05L8 6.45L5.25 7.05L5.5 9.86925L3.65 12L5.5 14.1L5.25 16.95L8 17.55L9.45 19.95ZM10.95 15.2038L16.2538 9.9L15.2 8.8155L10.95 13.0655L8.8 10.9462L7.74625 12L10.95 15.2038Z" fill="var(--fill-0, #1D4ED8)"/>
</g>
</svg>
