<svg preserveAspectRatio="none" width="100%" height="100%" overflow="visible" style="display: block;" viewBox="0 0 24 24" fill="none" xmlns="http://www.w3.org/2000/svg">
<g id="Frame">
<path id="Union" d="M19.5 5.34668V11.0996C19.5 13.5175 18.7906 15.7049 17.3721 17.6611C15.9536 19.6174 14.1628 20.8906 12 21.4805C9.83721 20.8906 8.04641 19.6174 6.62793 17.6611C5.20942 15.7049 4.5 13.5175 4.5 11.0996V5.34668L12 2.53809L19.5 5.34668ZM11.8633 14.6699C11.7845 14.8441 11.5916 14.9694 11.3623 14.9951C11.1331 15.0208 10.9052 14.9429 10.7695 14.793L9.15039 13H6.17871C6.42675 14.2838 6.93367 15.4836 7.7002 16.5996C8.83353 18.2496 10.2667 19.3504 12 19.9004C13.7333 19.3504 15.1665 18.2496 16.2998 16.5996C17.0663 15.4836 17.5732 14.2838 17.8213 13H14.8887C14.688 13 14.4993 12.9231 14.3818 12.793L13.2676 11.5596L11.8633 14.6699ZM6 6.375V11.0996C6 11.4038 6.01425 11.7042 6.04004 12H9.46973L9.54395 12.0039C9.7158 12.0205 9.8728 12.0934 9.97559 12.207L11.0889 13.4404L12.4941 10.3311C12.5728 10.1568 12.7657 10.0307 12.9951 10.0049C13.2244 9.97913 13.4532 10.057 13.5889 10.207L15.208 12H17.96C17.9857 11.7042 18 11.4038 18 11.0996V6.375L12 4.13477L6 6.375Z" fill="var(--fill-0, #1D4ED8)"/>
</g>
</svg>
