<svg preserveAspectRatio="none" width="100%" height="100%" overflow="visible" style="display: block;" viewBox="0 0 24 24" fill="none" xmlns="http://www.w3.org/2000/svg">
<g id="Frame">
<path id="Vector" d="M4.12625 20.5C3.36258 20.5 2.71317 20.2327 2.178 19.698C1.64267 19.1632 1.375 18.5138 1.375 17.75C1.375 17.1257 1.56408 16.5696 1.94225 16.0817C2.32058 15.5939 2.79817 15.2724 3.375 15.1172V8.88275C2.79817 8.72758 2.32058 8.40608 1.94225 7.91825C1.56408 7.43042 1.375 6.87433 1.375 6.25C1.375 5.48617 1.64225 4.83683 2.17675 4.302C2.71125 3.76733 3.36033 3.5 4.124 3.5C4.8875 3.5 5.53683 3.76733 6.072 4.302C6.60733 4.83683 6.875 5.48617 6.875 6.25C6.875 6.87433 6.68592 7.43042 6.30775 7.91825C5.92942 8.40608 5.45183 8.72758 4.875 8.88275V11.25H11.25V8.88275C10.6732 8.72758 10.1956 8.40608 9.81725 7.91825C9.43908 7.43042 9.25 6.87433 9.25 6.25C9.25 5.48617 9.51725 4.83683 10.0518 4.302C10.5863 3.76733 11.2353 3.5 11.9988 3.5C12.7624 3.5 13.4118 3.76733 13.947 4.302C14.4823 4.83683 14.75 5.48617 14.75 6.25C14.75 6.87433 14.5609 7.43042 14.1828 7.91825C13.8044 8.40608 13.3268 8.72758 12.75 8.88275V11.25H17.8845C18.232 11.25 18.5273 11.1285 18.7703 10.8855C19.0133 10.6427 19.1348 10.3475 19.1348 10V8.88275C18.5578 8.72758 18.0802 8.40608 17.702 7.91825C17.3238 7.43042 17.1348 6.87433 17.1348 6.25C17.1348 5.48617 17.4019 4.83683 17.9363 4.302C18.4708 3.76733 19.1198 3.5 19.8835 3.5C20.647 3.5 21.2964 3.76733 21.8318 4.302C22.3669 4.83683 22.6345 5.48617 22.6345 6.25C22.6345 6.87433 22.4454 7.43042 22.0673 7.91825C21.6891 8.40608 21.2115 8.72758 20.6345 8.88275V10C20.6345 10.7638 20.3672 11.4132 19.8325 11.948C19.2978 12.4827 18.6485 12.75 17.8845 12.75H12.75V15.1172C13.3268 15.2724 13.8044 15.5939 14.1828 16.0817C14.5609 16.5696 14.75 17.1257 14.75 17.75C14.75 18.5138 14.4827 19.1632 13.9482 19.698C13.4137 20.2327 12.7647 20.5 12.0012 20.5C11.2376 20.5 10.5882 20.2327 10.053 19.698C9.51767 19.1632 9.25 18.5138 9.25 17.75C9.25 17.1257 9.43908 16.5696 9.81725 16.0817C10.1956 15.5939 10.6732 15.2724 11.25 15.1172V12.75H4.875V15.1172C5.45183 15.2724 5.92942 15.5939 6.30775 16.0817C6.68592 16.5696 6.875 17.1257 6.875 17.75C6.875 18.5138 6.60775 19.1632 6.07325 19.698C5.53875 20.2327 4.88975 20.5 4.12625 20.5ZM4.125 19C4.4725 19 4.76767 18.8785 5.0105 18.6355C5.2535 18.3927 5.375 18.0975 5.375 17.75C5.375 17.4025 5.2535 17.1073 5.0105 16.8645C4.76767 16.6215 4.4725 16.5 4.125 16.5C3.7775 16.5 3.48233 16.6215 3.2395 16.8645C2.9965 17.1073 2.875 17.4025 2.875 17.75C2.875 18.0975 2.9965 18.3927 3.2395 18.6355C3.48233 18.8785 3.7775 19 4.125 19ZM4.125 7.5C4.4725 7.5 4.76767 7.3785 5.0105 7.1355C5.2535 6.89267 5.375 6.5975 5.375 6.25C5.375 5.9025 5.2535 5.60733 5.0105 5.3645C4.76767 5.1215 4.4725 5 4.125 5C3.7775 5 3.48233 5.1215 3.2395 5.3645C2.9965 5.60733 2.875 5.9025 2.875 6.25C2.875 6.5975 2.9965 6.89267 3.2395 7.1355C3.48233 7.3785 3.7775 7.5 4.125 7.5ZM12 19C12.3475 19 12.6427 18.8785 12.8855 18.6355C13.1285 18.3927 13.25 18.0975 13.25 17.75C13.25 17.4025 13.1285 17.1073 12.8855 16.8645C12.6427 16.6215 12.3475 16.5 12 16.5C11.6525 16.5 11.3573 16.6215 11.1145 16.8645C10.8715 17.1073 10.75 17.4025 10.75 17.75C10.75 18.0975 10.8715 18.3927 11.1145 18.6355C11.3573 18.8785 11.6525 19 12 19ZM12 7.5C12.3475 7.5 12.6427 7.3785 12.8855 7.1355C13.1285 6.89267 13.25 6.5975 13.25 6.25C13.25 5.9025 13.1285 5.60733 12.8855 5.3645C12.6427 5.1215 12.3475 5 12 5C11.6525 5 11.3573 5.1215 11.1145 5.3645C10.8715 5.60733 10.75 5.9025 10.75 6.25C10.75 6.5975 10.8715 6.89267 11.1145 7.1355C11.3573 7.3785 11.6525 7.5 12 7.5ZM19.8845 7.5C20.232 7.5 20.5273 7.3785 20.7703 7.1355C21.0133 6.89267 21.1348 6.5975 21.1348 6.25C21.1348 5.9025 21.0133 5.60733 20.7703 5.3645C20.5273 5.1215 20.232 5 19.8845 5C19.5372 5 19.242 5.1215 18.999 5.3645C18.756 5.60733 18.6345 5.9025 18.6345 6.25C18.6345 6.5975 18.756 6.89267 18.999 7.1355C19.242 7.3785 19.5372 7.5 19.8845 7.5Z" fill="var(--fill-0, #1D4ED8)"/>
</g>
</svg>
