<svg preserveAspectRatio="none" width="100%" height="100%" overflow="visible" style="display: block;" viewBox="0 0 16 16" fill="none" xmlns="http://www.w3.org/2000/svg">
<g id="Frame">
<path id="Vector" d="M6.69483 9.46017C7.0805 9.46017 7.40611 9.32789 7.67167 9.06333L9.863 6.86783C10.1278 6.6025 10.2602 6.27717 10.2602 5.89183C10.2602 5.5065 10.1278 5.18144 9.863 4.91667C9.59667 4.65344 9.27067 4.52183 8.885 4.52183C8.49922 4.52183 8.17472 4.65344 7.9115 4.91667C7.59017 4.803 7.26944 4.76906 6.94933 4.81483C6.62922 4.8605 6.33544 5.01711 6.068 5.28467C5.81155 5.541 5.65772 5.82922 5.6065 6.14933C5.55517 6.46944 5.59189 6.79017 5.71667 7.1115C5.45344 7.37828 5.32183 7.70478 5.32183 8.091C5.32183 8.47733 5.45422 8.80211 5.719 9.06533C5.98378 9.32856 6.30906 9.46017 6.69483 9.46017ZM4.73333 14.0667V11.3295C4.1 10.7962 3.60833 10.1669 3.25833 9.44183C2.90833 8.71672 2.73333 7.96233 2.73333 7.17867C2.73333 5.72167 3.247 4.48317 4.27433 3.46317C5.30167 2.44328 6.54911 1.93333 8.01667 1.93333C9.13378 1.93333 10.15 2.237 11.0653 2.84433C11.9808 3.45155 12.5855 4.23894 12.8795 5.2065L13.8917 8.58283C13.9417 8.75606 13.9147 8.91333 13.8108 9.05467C13.7071 9.196 13.5658 9.26667 13.3872 9.26667H12.4667V11.3948C12.4667 11.6896 12.3617 11.9419 12.1518 12.1518C11.9419 12.3617 11.6896 12.4667 11.3948 12.4667H9.66667V14.0667H8.8V11.6H11.3948C11.4547 11.6 11.5039 11.5808 11.5423 11.5423C11.5808 11.5039 11.6 11.4547 11.6 11.3948V8.4H12.9333L12.0667 5.51667C11.8222 4.71244 11.3229 4.05861 10.5687 3.55517C9.81433 3.05172 8.96367 2.8 8.01667 2.8C6.78333 2.8 5.73889 3.22633 4.88333 4.079C4.02778 4.93167 3.6 5.96856 3.6 7.18967C3.6 7.84333 3.73889 8.46433 4.01667 9.05267C4.29444 9.641 4.68333 10.1459 5.18333 10.5673L5.6 10.9333V14.0667H4.73333Z" fill="var(--fill-0, #1D4ED8)"/>
</g>
</svg>
