<svg width="240" height="120" viewBox="0 0 240 120" fill="none" xmlns="http://www.w3.org/2000/svg">
  <defs>
    <linearGradient id="kimi-grad" x1="28" y1="24" x2="180" y2="96" gradientUnits="userSpaceOnUse">
      <stop stop-color="#1D4ED8"/>
      <stop offset="1" stop-color="#6EA8FF"/>
    </linearGradient>
  </defs>
  <rect width="240" height="120" rx="28" fill="white"/>
  <circle cx="43" cy="38" r="9" fill="url(#kimi-grad)"/>
  <path d="M37 82V46H49V62.5L66.5 46H81L61.5 64L82 82H66.5L49 66.5V82H37Z" fill="#20293A"/>
  <path d="M93.5 82V52H105.5V82H93.5ZM99.5 47C95.4 47 92.5 44.4 92.5 40.8C92.5 37.2 95.4 34.6 99.5 34.6C103.7 34.6 106.5 37.2 106.5 40.8C106.5 44.4 103.7 47 99.5 47Z" fill="#20293A"/>
  <path d="M117 82V52H128.4V56.1C130.9 53 134.7 51 139.1 51C143.8 51 147.4 53.1 149.3 56.7C152 53.1 156.1 51 160.9 51C168.8 51 173.6 56 173.6 64.7V82H161.9V67.4C161.9 63.5 159.9 61.3 156.4 61.3C152.9 61.3 150.5 63.9 150.5 67.8V82H138.9V67.4C138.9 63.5 136.9 61.3 133.4 61.3C129.8 61.3 127.5 63.9 127.5 67.8V82H117Z" fill="#20293A"/>
  <path d="M186 82V52H197.9V82H186ZM192 47C187.9 47 185.1 44.4 185.1 40.8C185.1 37.2 187.9 34.6 192 34.6C196.1 34.6 199 37.2 199 40.8C199 44.4 196.1 47 192 47Z" fill="#20293A"/>
 </svg>
