<svg width="498" height="120" viewBox="31 220 498 120" fill="none" xmlns="http://www.w3.org/2000/svg">
<path d="M106.038 220.165C120.416 220.321 121.44 220.399 124.69 221.569C136.706 225.898 145.777 236.175 148.253 248.269C148.959 251.718 149.059 256.638 148.925 281.453L148.768 310.587L147.108 315.239C144.863 321.537 142.588 325.201 138.153 329.661C133.986 333.853 129.314 336.841 124.162 338.607C120.795 339.763 120.11 339.79 91.4053 339.938C63.3608 340.083 61.904 340.043 57.8047 339.005C52.5424 337.673 48.9681 335.959 44.998 332.866C40.8903 329.666 37.2829 325.27 34.8018 320.439C31.3872 313.793 31.0312 311.416 31.0312 295.288V281.119H51.042L51.2246 293.729C51.404 306.097 51.4346 306.398 52.8184 309.364C54.7423 313.488 58.1677 316.807 61.9736 318.235C64.984 319.366 65.4872 319.384 90.7637 319.234C116.433 319.083 116.494 319.08 118.762 317.865C122.265 315.988 125.044 313.176 126.659 309.876L128.13 306.871V252.714L126.721 250.059C125.032 246.877 122.114 243.988 118.87 242.283C116.591 241.085 115.942 241.026 103.657 240.866L90.8252 240.698V220L106.038 220.165ZM71.5312 281.125H51.2812V260.875H71.5312V281.125ZM71.2471 240.768H51.1387V260.943H31.0312V240.768H51.1387V220.06H71.2471V240.768Z" fill="#1F4CF0"/>
<path d="M210.824 223.27C227.309 223.27 240.672 236.633 240.672 253.117C240.672 269.602 227.309 282.966 210.824 282.966C194.34 282.966 180.977 269.602 180.977 253.117C180.977 236.633 194.34 223.27 210.824 223.27ZM210.625 233.549C199.927 233.549 191.254 242.222 191.254 252.92V253.711C191.254 264.409 199.926 273.082 210.625 273.082C221.324 273.082 229.996 264.409 229.996 253.711V252.92C229.996 242.222 221.323 233.549 210.625 233.549Z" fill="black"/>
<path d="M265.97 240.27C272.53 240.27 278.412 243.177 282.398 247.771C280.544 249.833 278.624 251.949 276.758 253.999C274.308 250.706 270.387 248.572 265.968 248.572C258.545 248.572 252.527 254.591 252.526 262.014C252.526 269.437 258.544 275.455 265.968 275.455C270.068 275.455 273.739 273.618 276.204 270.723L281.903 276.807C277.933 281.081 272.264 283.757 265.97 283.757C253.961 283.757 244.227 274.022 244.227 262.014C244.227 250.005 253.961 240.27 265.97 240.27Z" fill="black"/>
<path d="M302.743 241.456H314.999V249.362H302.743V270.315C302.743 272.935 304.867 275.059 307.487 275.059H314.208V282.966H302.743C297.503 282.966 293.255 278.718 293.255 273.478V249.362H284.953V241.456H293.255V229.596H302.743V241.456Z" fill="black"/>
<path d="M339.111 240.27C351.12 240.27 360.854 250.005 360.854 262.014C360.854 274.022 351.12 283.757 339.111 283.757C327.103 283.757 317.367 274.022 317.367 262.014C317.367 250.005 327.103 240.27 339.111 240.27ZM339.108 248.572C331.685 248.572 325.667 254.59 325.667 262.014C325.667 269.437 331.685 275.455 339.108 275.455C346.532 275.455 352.55 269.437 352.55 262.014C352.55 254.59 346.532 248.572 339.108 248.572Z" fill="black"/>
<path d="M374.308 258.647L391.303 241.652H402.966L383.792 261.023L404.942 283.162H393.082L374.308 263.51V282.964H364.82V224.455H374.308V258.647Z" fill="black"/>
<path d="M425.688 240.27C437.525 240.27 447.151 249.729 447.424 261.5C447.5 262.893 447.47 264.207 447.433 265.966H413.654C415.322 271.128 420.166 274.861 425.883 274.861C430.337 274.861 434.261 272.593 436.565 269.149L442.638 275.631C438.653 280.585 432.541 283.757 425.688 283.757C413.68 283.757 403.945 274.022 403.945 262.014C403.946 250.005 413.68 240.27 425.688 240.27ZM425.883 249.165C420.167 249.165 415.322 252.898 413.654 258.06H438.109C436.442 252.899 431.599 249.165 425.883 249.165Z" fill="black"/>
<path d="M474.366 240.27C483.651 240.27 490.804 248.035 490.933 255.292H490.935V255.418C490.935 255.442 490.936 255.466 490.936 255.49C490.936 255.512 490.935 255.533 490.935 255.555V283.756H481.446V256.465C481.423 255.249 478.439 249.758 470.974 249.758C466.582 249.758 462.679 252.373 460.198 256.425V283.756H450.617V241.455H460.198V248.895C463.233 243.699 468.445 240.27 474.366 240.27Z" fill="black"/>
<path d="M527.09 252.721V244.616C511.672 237.501 495.266 241.058 495.266 252.721C495.266 271.104 520.172 263 520.172 271.104C520.172 280.79 495.266 270.116 495.266 270.116V279.604C495.266 279.604 524.916 294.231 528.869 272.092C530.846 256.477 504.358 258.453 504.358 253.314C504.358 248.174 516.203 247.697 527.09 252.721Z" fill="black"/>
<path d="M412.638 318.26L410.273 319.929C409.821 319.095 408.951 317.912 408.151 316.903C389.677 318.016 386.999 318.155 385.781 318.607L385.016 315.859C385.572 315.755 386.616 314.955 387.694 313.876C388.842 312.902 392.843 308.345 395.348 304.344L398.027 305.596C397.157 306.814 396.183 308.031 395.209 309.214L395 309.493C394.791 309.736 394.618 309.945 394.409 310.188L394.2 310.432C392.635 312.311 390.999 314.05 389.469 315.476L406.237 314.641C404.741 312.902 402.793 311.023 401.262 309.632L403.419 308.205C404.359 309.04 405.437 310.049 406.516 311.128L406.794 311.406C409.16 313.772 411.525 316.451 412.638 318.26ZM409.02 321.286V334.924H387.52V321.286H409.02ZM390.269 332.245H406.168V323.965H390.269V332.245Z" fill="black"/>
<path d="M359.175 323.825V336.419H356.461V323.825H342.789V321.147H356.461V309.457H344.598V306.709H371.177V309.457H359.175V321.147H373.126V323.825H359.175ZM369.125 311.44C368.568 312.519 367.907 313.806 367.246 315.058L367.072 315.406C366.237 317.007 365.437 318.537 364.846 319.651L362.515 318.851C363.037 317.737 363.802 316.137 364.498 314.502L364.672 314.189C365.263 312.867 365.82 311.58 366.237 310.605L369.125 311.44ZM352.739 318.642L350.164 319.546C349.712 317.668 348.251 313.876 346.999 311.51L349.434 310.745C350.791 313.075 352.321 316.728 352.739 318.642Z" fill="black"/>
<path d="M317.807 317.493C315.72 318.293 313.32 318.989 310.815 319.546L310.467 319.65C310.362 319.65 310.258 319.685 310.119 319.72L309.771 319.789C309.388 319.894 308.971 319.963 308.553 320.033L308.205 320.103L307.858 320.172C307.788 320.207 307.753 320.207 307.684 320.207L307.336 320.276C305.875 320.555 304.413 320.798 303.022 321.007L302.5 318.502C304.483 318.328 306.71 318.015 308.971 317.563L309.319 317.493C311.267 317.111 313.215 316.624 314.955 316.102C313.076 315.058 311.51 313.666 310.188 312.136C309.945 312.275 309.736 312.449 309.493 312.623L309.214 312.797L308.936 313.005C308.797 313.11 308.658 313.179 308.519 313.284L308.101 313.597C307.197 314.223 306.292 314.849 305.283 315.406L303.961 313.179C308.275 310.988 311.858 307.265 313.493 304.447L316.346 305.108C315.616 306.048 315.163 307.126 314.363 307.961H327.548L328.036 307.717L329.705 308.9C327.757 311.823 324.452 314.397 320.73 316.171C324.243 317.18 328.836 317.806 332.628 318.015L332.141 320.59C326.54 320.137 321.565 319.059 317.807 317.493ZM311.893 310.675C313.32 312.449 315.337 313.875 317.842 314.954C320.869 313.701 323.652 312.031 325.531 310.188H312.345L311.893 310.675ZM316.972 325.808C314.92 331.061 310.397 334.888 303.718 336.488L302.952 333.949C308.588 332.94 312.345 329.913 314.189 325.808H305.005V323.442H315.094C315.337 322.433 315.616 321.077 315.581 319.929L318.434 320.276C318.26 321.251 318.051 322.607 317.807 323.442H329.949C329.949 323.442 329.879 324.347 329.81 324.66C329.114 330.505 328.209 334.018 327.096 335.027C326.54 335.758 325.426 335.967 324.209 336.036C323.304 336.036 321.286 336.036 318.99 335.897L318.921 333.462C320.73 333.636 322.748 333.705 323.548 333.705C324.209 333.705 324.626 333.636 324.974 333.357C325.705 332.731 326.47 329.983 326.992 325.808H316.972Z" fill="black"/>
<path d="M272.929 335.931C272.094 336.348 270.424 336.453 267.954 336.453L267.78 333.809C268.963 333.844 270.598 333.844 270.98 333.809C271.433 333.774 271.537 333.565 271.537 333.113V324.346H266.249C265.971 328.173 265.136 333.461 263.709 336.418L261.344 335.235C263.57 330.678 263.988 322.781 263.988 318.014V305.664H274.146V333.148C274.146 334.435 273.764 335.513 272.929 335.931ZM292.933 334.261L291.541 336.592C289.454 335.409 287.227 333.357 285.662 331.408C284.235 333.252 282.6 335.2 280.687 336.314L279.365 334.122C281 333.217 282.739 331.408 284.235 329.495C282.426 326.886 281.069 323.094 279.991 319.719H279.191V336.453H276.651V305.768H291.124V312.378C291.124 313.631 290.671 314.396 289.697 314.744C288.654 315.092 286.601 315.092 283.818 315.092L283.644 312.761C284.34 312.761 285.14 312.796 285.87 312.796H286.253C286.984 312.796 287.575 312.761 287.819 312.761C288.34 312.761 288.445 312.657 288.445 312.274V308.378H279.191V317.179H290.08L290.532 317.11L292.132 317.632C291.298 322.05 289.315 326.677 287.262 329.53C288.827 331.304 291.124 333.357 292.933 334.261ZM266.527 313.631H271.537V308.204H266.527V313.631ZM266.493 321.806H271.537V316.031H266.527V318.467C266.527 319.058 266.527 319.719 266.527 320.38L266.493 320.763C266.493 321.111 266.493 321.458 266.493 321.806ZM282.322 319.719C283.192 322.293 284.096 325.39 285.662 327.512C287.053 325.425 288.34 322.433 289.106 319.719H282.322Z" fill="black"/>
<path d="M236.294 314.433C235.842 321.217 233.233 330.888 223.631 336.733L221.961 334.297C230.519 329.183 233.059 320.416 233.546 314.433H222.796V311.754H233.685V304.518H236.538V311.754H250.593C250.593 311.754 250.558 312.832 250.523 313.18C249.827 326.435 248.888 333.08 247.462 334.68C246.731 335.585 245.687 336.037 244.47 336.176C243.322 336.28 241.13 336.176 238.729 336.037L238.695 333.254C240.469 333.393 242.661 333.462 243.461 333.462C244.157 333.462 244.609 333.289 244.992 332.906C246.14 331.827 247.009 325.774 247.636 314.433H236.294Z" fill="black"/>
<path d="M192.353 330.297C191.587 332.315 188.909 334.994 183.377 336.629L182.473 334.298C186.091 333.393 188.561 331.55 189.465 330.297H181.498V327.966H190.405C190.335 327.688 190.335 327.444 190.335 327.236V324.974H185.673V312.067H189.5C189.256 311.476 188.804 310.711 188.317 309.945L188.039 309.493C187.969 309.389 187.9 309.284 187.83 309.18H186.091C185.186 310.571 183.968 311.893 182.716 313.007L180.977 311.198C182.855 309.736 184.943 306.884 185.917 304.379L188.422 305.109C188.143 305.736 187.726 306.501 187.413 307.058H196.075V309.18H190.544C191.066 309.876 191.587 310.85 191.866 311.476L189.917 312.067H196.354C195.797 311.893 194.753 311.267 194.197 311.058C196.18 309.493 198.093 306.814 198.963 304.379L201.572 305.04C201.294 305.701 200.981 306.501 200.598 307.058H211.348V309.18H204.703C205.364 309.806 205.955 310.537 206.303 311.267L204.459 312.067H207.973V324.974H203.625V327.966H211.661V330.297H203.625V336.385H201.015V330.297H192.353ZM196.701 312.067H204.042C203.59 311.441 202.929 310.606 202.233 309.736L201.989 309.458C201.92 309.389 201.85 309.284 201.781 309.18H199.345C198.441 310.258 197.502 311.232 196.701 312.067ZM188.317 315.72H205.225V313.911H188.317V315.72ZM188.317 319.373H205.225V317.529H188.317V319.373ZM188.317 323.13H205.225V321.147H188.317V323.13ZM192.596 327.966H201.015V324.974H192.84V327.27C192.84 327.479 192.84 327.723 192.596 327.966Z" fill="black"/>
<path d="M41 241H51V251V261H41H31V251V241H41Z" fill="#531FFE"/>
<path d="M61 220H71V230.5V241H61H51V230.5V220H61Z" fill="#611FFE"/>
</svg>
