<svg preserveAspectRatio="none" width="100%" height="100%" overflow="visible" style="display: block;" viewBox="0 0 455 80" fill="none" xmlns="http://www.w3.org/2000/svg">
<g id="Frame" clip-path="url(#clip0_0_161)">
<path id="Vector" d="M19.6515 59.9359C19.5489 59.8539 19.4332 59.7889 19.309 59.7434C19.1773 59.7434 19.1642 59.7434 19.0456 59.7434C18.9892 59.7415 18.9338 59.7582 18.8884 59.7908C18.843 59.8234 18.8102 59.87 18.7954 59.923C18.69 60.1668 18.9534 60.4747 19.4012 60.6799C19.8491 60.8852 20.073 60.1668 19.6515 59.8845M28.3972 66.4272C28.305 66.2732 28.6079 65.9012 28.1601 65.9012C28.0293 65.8797 27.8958 65.8797 27.765 65.9012C27.6859 65.9012 27.5542 66.2348 27.5279 66.2219C27.1823 66.0721 26.8257 65.9478 26.461 65.8499C25.9868 65.7344 25.7234 65.4009 25.3415 65.5163C25.1884 65.5423 25.0412 65.5944 24.9068 65.6703C24.851 65.7144 24.8078 65.7717 24.7811 65.8367C24.7545 65.9017 24.7453 65.9723 24.7546 66.0417C24.7638 66.1111 24.7911 66.1771 24.8339 66.2333C24.8767 66.2896 24.9335 66.3342 24.999 66.363C25.1175 66.44 25.9342 66.363 26.3161 66.363C26.6981 66.363 27.0669 66.5427 27.0932 66.6966C27.1196 66.8505 27.0142 66.9019 26.8693 67.0045C26.7077 67.1179 26.5219 67.1941 26.3257 67.2274C26.1295 67.2608 25.9281 67.2503 25.7366 67.1969C25.7366 67.1969 25.7366 67.0815 25.7366 67.0173C25.7366 66.9532 26.1449 66.9147 26.1581 66.8634C26.1712 66.8121 25.7366 66.6581 25.3415 66.6196C25.206 66.6015 25.0686 66.6015 24.9332 66.6196C24.6478 66.7514 24.3946 66.9408 24.1902 67.1753C23.9858 67.4098 23.835 67.6839 23.7477 67.9795C23.5633 68.5311 23.3131 68.9416 23.6029 69.1854C23.8926 69.4291 24.1429 69.1084 24.3931 68.4926C24.5443 68.265 24.7656 68.0898 25.0254 67.9923C25.1208 67.8783 25.2583 67.8051 25.4083 67.7883C25.5584 67.7716 25.7093 67.8125 25.8288 67.9025C25.8288 67.9025 25.8288 68.0308 25.6707 68.0308C25.5808 68.0268 25.4911 68.0432 25.4088 68.0788C25.3264 68.1145 25.2538 68.1683 25.1966 68.236C25.1966 68.3643 25.1966 68.5311 25.1966 68.6979C25.1966 68.8647 24.8278 68.8262 25.0649 69.1854C25.0649 69.1854 24.8541 69.3008 24.7751 69.1854C24.6961 69.0699 24.7751 69.0827 24.7751 69.0699C24.7751 69.0571 24.4326 69.3137 24.3931 69.3393C24.1618 69.4987 23.8959 69.6041 23.616 69.6472C23.0692 69.7881 22.5324 69.9638 22.0091 70.1732C21.5481 70.3784 21.614 70.712 22.1277 70.9301C22.3516 71.0327 22.9838 70.7633 23.2867 70.6607C23.5642 70.5395 23.8652 70.4782 24.1692 70.4811C24.38 70.4811 23.4711 71.5715 23.4843 71.7639C23.4975 71.9564 23.9321 72.3541 24.1165 72.0077C24.3009 71.6613 24.2878 71.6485 24.4063 71.4047C24.5248 71.161 24.6697 71.0327 24.7619 70.8659C24.8541 70.6992 25.0385 70.4041 25.1044 70.4298C25.1702 70.4554 25.2229 70.7248 25.3678 71.0712C25.7603 71.9423 26.436 72.6636 27.2908 73.1238C27.7386 73.3419 28.0942 73.1238 27.9098 72.5722L27.8045 72.2899C27.7123 72.0718 27.7123 72.2899 27.2908 71.9949C27.1723 71.9051 26.6718 71.4047 26.4083 71.1738C26.2181 70.997 26.062 70.7885 25.9473 70.558C25.8683 70.3784 25.6444 70.2886 26.0264 70.1219C26.4083 69.9551 26.0922 69.7498 26.2898 69.7242C26.4874 69.6985 26.764 69.7242 26.9747 69.7242C27.1854 69.7242 27.5542 69.4804 27.9625 69.3521C28.3708 69.2239 28.8582 68.5183 28.6606 68.2232C28.463 67.9282 28.226 67.9282 27.8703 67.7229C27.5147 67.5176 27.2908 67.8384 27.4884 67.5561C27.6859 67.2739 27.6464 67.2739 27.8572 67.2739C28.0679 67.2739 29.1743 67.7742 29.2797 67.2739C29.385 66.7736 28.5948 66.9788 28.3972 66.6453M27.6596 68.4413C27.6596 68.762 27.1196 68.9929 26.7771 69.0827C26.6454 69.0827 26.5005 69.2239 26.4215 69.2367C26.3425 69.2495 26.2371 69.2367 26.4215 68.9801C26.6059 68.7235 26.7771 68.6209 26.6191 68.4541C26.461 68.2874 26.7244 67.8512 26.8693 67.9795C27.0142 68.1078 27.6464 68.3515 27.6464 68.4413M38.1966 10.6479L38.0649 8.26171H39L40.7255 10.558L42.0426 10.4939L40.2118 8.01796C40.5427 7.8918 40.8209 7.66151 41.002 7.36369C41.1863 7.04832 41.2689 6.68626 41.2391 6.32457C41.243 6.08271 41.1932 5.84288 41.0932 5.62148C40.9932 5.40007 40.8453 5.20231 40.6596 5.04169C40.4678 4.8844 40.245 4.76687 40.005 4.69628C39.7649 4.6257 39.5126 4.60354 39.2634 4.63117L36.7477 4.77229L37.0902 10.6607L38.1966 10.6479ZM39.2503 5.74727C39.465 5.72092 39.682 5.77604 39.8562 5.90122C39.9341 5.96354 39.9969 6.04185 40.0402 6.13055C40.0834 6.21925 40.106 6.31617 40.1064 6.41437C40.1183 6.51186 40.1079 6.6107 40.076 6.70384C40.0441 6.79698 39.9916 6.88211 39.922 6.95317C39.763 7.09292 39.5566 7.17058 39.3425 7.17126L38.0254 7.24824L37.9332 5.82425L39.2503 5.74727ZM20.231 61.1931C19.9676 61.1931 20.231 61.5266 20.231 61.5779C20.231 61.6292 20.3496 61.5779 20.4023 61.6549C20.4549 61.7319 20.7315 62.0398 20.8764 62.0654C21.4033 62.1424 21.535 61.7575 21.1925 61.424C21.0585 61.3075 20.8968 61.2253 20.7221 61.185C20.5473 61.1447 20.3649 61.1475 20.1915 61.1931M39.0659 70.9044C38.6707 70.7248 38.0122 71.0969 37.8541 70.9044C37.6961 70.712 37.9463 70.635 37.9727 70.4939C37.9977 70.4021 37.9857 70.3044 37.9392 70.2209C37.8927 70.1375 37.8151 70.0745 37.7224 70.0449C37.617 70.0449 37.617 69.8781 37.7224 69.8653C37.88 69.8484 38.039 69.8484 38.1966 69.8653C38.3452 69.9081 38.5041 69.9024 38.6492 69.8492C38.7942 69.7959 38.9174 69.698 39 69.5702C39.0315 69.5001 39.0382 69.4217 39.0192 69.3475C39.0001 69.2732 38.9563 69.2072 38.8947 69.1597C38.4367 69.0122 37.9512 68.964 37.4722 69.0186C36.7873 69.0186 36.076 69.0186 35.9311 69.2495C35.7862 69.4804 35.7204 69.5061 35.6414 69.6472C35.5623 69.7883 35.4701 70.0577 35.3384 70.1475C34.9301 70.4169 34.8116 70.9814 34.7457 70.789C34.6799 70.5965 34.4955 70.6735 34.3769 70.6478C34.2584 70.6222 34.3769 70.4811 34.3769 70.4298C34.3769 70.3784 34.4428 70.4298 34.535 70.4298C34.7983 70.3291 35.0141 70.1372 35.1409 69.8909C35.2726 69.4419 35.457 69.0956 35.2462 68.8262C35.1432 68.7152 35.0171 68.6269 34.8763 68.5672C34.7355 68.5074 34.5832 68.4777 34.4296 68.4798C34.2191 68.4685 34.0085 68.4991 33.8106 68.5696C33.5076 68.6979 33.4022 69.0571 33.2179 69.5061C33.09 69.7285 32.98 69.9601 32.8886 70.1988C32.7832 70.558 32.6647 71.0584 32.5988 71.3149C32.4659 71.7721 32.4659 72.2562 32.5988 72.7133C32.6647 72.9314 32.5988 73.2264 32.9149 73.2521C33.231 73.2777 33.0466 72.3284 33.1388 71.9692C33.1423 71.8888 33.1642 71.8103 33.203 71.7392C33.2417 71.6682 33.2963 71.6065 33.3627 71.5587C33.3627 71.5587 33.4418 71.4561 33.5208 71.4945C33.5998 71.533 33.5208 71.7896 33.5866 71.7896C33.6525 71.7896 33.9291 71.5202 34.1135 71.6228C34.2979 71.7255 34.0476 71.9435 33.8632 72.0847C33.6788 72.2258 33.3364 72.9185 33.8632 73.0468C34.074 73.0468 34.3111 72.8287 34.4164 72.5465C34.5218 72.2643 34.4164 72.1873 34.5613 72.0205C34.7062 71.8537 34.7457 71.8537 34.8379 71.6998C34.9238 71.5232 35.0206 71.3519 35.1277 71.1867C35.2857 70.9686 35.5096 70.7633 35.6545 70.5965C35.7912 70.4114 35.9555 70.2471 36.1419 70.109C36.228 70.0472 36.3295 70.0086 36.4359 69.9974C36.5423 69.9861 36.6499 70.0025 36.7477 70.0449C36.8663 70.1219 36.3921 70.3913 36.1024 70.6478C35.6955 71.0241 35.4388 71.5286 35.3779 72.0718C35.3779 72.3156 35.2067 72.9698 35.3779 73.1238C35.4262 73.1737 35.4861 73.2114 35.5527 73.2338C35.6192 73.2561 35.6903 73.2624 35.7599 73.2521C36.1419 73.2521 36.0102 72.5208 36.2209 72.2258C36.2209 72.2258 36.3131 72.0462 36.4185 72.0975C36.3823 72.8663 36.2541 73.6283 36.0365 74.3682C35.9442 74.804 35.8826 75.2455 35.8521 75.6895C35.8521 75.8691 35.8521 76.0487 36.1024 76.1001C36.3526 76.1514 36.6555 75.356 36.7477 74.8172C36.8001 74.3684 36.9386 73.9332 37.156 73.5343C37.4574 73.3066 37.8175 73.1646 38.1966 73.1238C38.4995 73.0597 38.7629 72.7004 38.9342 72.5593C39.1812 72.2505 39.3524 71.8906 39.4347 71.5074C39.4574 71.4502 39.4679 71.3892 39.4655 71.3279C39.4631 71.2667 39.4479 71.2066 39.4207 71.1513C39.3936 71.096 39.3551 71.0467 39.3077 71.0065C39.2602 70.9662 39.2048 70.9359 39.1449 70.9172M34.1662 70.558C34.0285 70.5983 33.904 70.6726 33.8047 70.7738C33.7054 70.875 33.6348 70.9996 33.5998 71.1353C33.5998 71.2123 33.4681 71.1353 33.4549 71.1353C33.4108 70.8841 33.4573 70.6257 33.5866 70.4041C33.7974 70.0834 33.8764 69.8268 34.0476 69.6215C34.2189 69.4163 34.535 69.2623 34.5877 69.3265C34.6403 69.3906 34.4296 69.6087 34.4164 69.737C34.4202 69.9341 34.35 70.1257 34.2189 70.2758C34.1398 70.4041 34.3901 70.5196 34.2189 70.5837M36.8531 70.9044C36.6951 71.1482 36.4843 71.2508 36.3789 71.1353C36.2736 71.0199 36.7082 70.6863 36.8926 70.4554C37.077 70.2245 37.1692 70.2117 37.2482 70.2758C37.3273 70.34 37.077 70.5709 36.8531 70.9044ZM38.1966 72.3541C37.9727 72.4952 37.841 72.5593 37.6829 72.5337C37.5248 72.508 37.4458 72.3412 37.4985 72.2643C37.5512 72.1873 37.4985 71.9692 37.5907 71.8409C37.6829 71.7126 37.9727 71.7126 38.1571 71.7126C38.3415 71.7126 38.5522 71.6228 38.5785 71.8024C38.5248 72.0257 38.3889 72.2219 38.1966 72.3541ZM20.8764 62.2707C20.4944 62.0782 20.2179 61.9243 20.1388 61.7062C20.1388 61.7062 20.0598 61.4496 19.9808 61.424C19.9017 61.3983 19.8754 61.5266 19.7305 61.424C19.4247 61.1222 19.0739 60.867 18.69 60.6671C18.5188 60.6029 18.308 60.2566 18.0841 60.2309C17.8602 60.2053 17.3334 60.3849 17.5441 60.821C17.6363 61.0135 18.2027 60.9621 18.6373 61.2957C18.848 61.4625 19.072 61.2957 19.1378 61.6421C19.2037 61.9885 19.1378 61.7447 19.0456 61.7447C18.558 61.5467 18.0562 61.3838 17.5441 61.2572C17.0568 61.1674 16.6221 61.0904 16.4641 61.5138C16.4641 61.6036 16.4641 61.9628 16.2401 61.873C15.9608 61.7658 15.6502 61.7658 15.3708 61.873C15.2627 61.9733 15.1615 62.0804 15.0679 62.1937C14.8572 62.4759 15.2391 62.7069 15.0679 62.7967C14.8967 62.8865 14.7518 62.6555 14.5015 62.6042C14.2513 62.5529 14.1459 62.7453 14.0801 62.8351C14.0142 62.9249 14.0801 63.0019 14.3435 63.2328C14.6978 63.5535 15.1142 63.8021 15.5684 63.9641C15.7467 64.0446 15.9042 64.1629 16.0294 64.3105C16.1216 64.4644 15.924 64.5927 15.7265 64.4901C15.5289 64.3874 13.6849 63.5151 13.8957 64.4901C14.0014 64.7223 14.1756 64.9188 14.3962 65.0545C14.5279 65.0545 14.9362 65.17 14.9625 65.3624C14.9889 65.5548 14.3567 65.7858 14.4752 66.1578C14.5937 66.5298 14.6991 66.5811 14.8572 66.5042C15.0152 66.4272 15.5816 65.8114 15.7265 65.8242C16.1348 65.8242 16.7538 66.7992 17.1885 66.5683C17.6231 66.3374 17.6231 65.9269 17.4651 65.8242C17.1229 65.6461 16.7969 65.4401 16.4904 65.2085C16.4114 65.1187 16.5694 65.0032 16.7011 64.9262C16.8328 64.8493 17.5178 65.4779 18.0183 65.8756C18.5188 66.2732 18.2949 66.2091 18.5188 66.4144C18.5912 66.4879 18.6837 66.54 18.7853 66.5644C18.8869 66.5889 18.9936 66.5848 19.0929 66.5525C19.1922 66.5203 19.2801 66.4612 19.3463 66.3823C19.4126 66.3033 19.4544 66.2077 19.4671 66.1065C19.4671 65.914 18.5583 65.2085 18.15 64.9647C17.7417 64.721 17.4124 64.5927 17.4124 64.3618C17.4124 64.1308 17.7285 64.2848 17.7417 64.2848C18.15 64.644 20.0598 64.8364 19.9676 63.6562C19.9676 63.2585 20.2837 63.22 19.8886 62.9249C19.8886 62.9249 19.4144 62.6684 19.3881 62.5529C19.3874 62.5124 19.3984 62.4725 19.4198 62.4378C19.4411 62.403 19.472 62.3747 19.5089 62.3561C19.5458 62.3374 19.5873 62.3291 19.6288 62.3322C19.6703 62.3352 19.7101 62.3495 19.7437 62.3733C20.0203 62.5529 20.4286 62.9249 20.4813 62.9506C21.0476 63.22 21.4691 62.6684 20.7842 62.322M18.4793 62.0526C18.5583 62.1809 18.4793 62.2707 18.1236 62.245C17.768 62.2194 17.0699 62.1424 17.1358 61.8986C17.2016 61.6549 18.3607 61.8986 18.4529 62.0654M15.4894 62.5914C15.4894 62.2707 16.0953 62.3348 16.2006 62.4375C16.306 62.5401 15.5421 62.925 15.4894 62.5914ZM17.3597 63.1815C17.0436 63.4124 16.925 63.7203 16.8065 63.7075C16.688 63.6947 16.4904 63.5407 16.3323 63.4766C16.1743 63.4124 15.7923 63.297 15.7528 63.2328C15.7133 63.1687 15.8845 63.2328 16.0294 63.1045C16.5299 62.7453 16.7406 62.5144 16.9514 62.5529C17.1621 62.5914 17.2675 62.6812 17.3992 62.7069C17.5309 62.7325 17.8339 62.7069 17.8207 62.7069C17.6984 62.8763 17.5469 63.0239 17.3729 63.143M18.9666 63.7973C19.0588 63.7973 18.9666 63.9384 18.769 63.9897C18.5714 64.0411 17.847 64.1052 17.8207 63.8871C17.7943 63.669 18.15 63.3226 18.5319 63.1943C18.6505 63.1174 18.7163 62.8993 18.8349 62.848C18.9534 62.7967 19.3222 63.0276 19.2827 63.0789C19.2432 63.1302 18.9666 63.2072 18.9139 63.374C18.8612 63.5407 18.8217 63.7075 18.9139 63.8101M12.9737 28.9545L10.537 27.8897L11.5775 25.6575L14.001 26.7223L14.4884 25.7858L8.93011 23.3483L8.46912 24.3746L10.537 25.247L9.52282 27.4278L7.45493 26.517L6.99394 27.5048L12.5127 29.9423L12.9737 28.9545ZM8.24521 34.0859C9.05198 34.313 9.91817 34.2208 10.6555 33.8294C10.9908 33.6383 11.2813 33.3809 11.5082 33.0738C11.735 32.7666 11.8933 32.4166 11.9727 32.0462C12.1341 31.5363 12.1341 30.9909 11.9727 30.4811L10.7609 30.186C11.0055 30.6634 11.0572 31.2128 10.9058 31.7255C10.852 31.9631 10.7465 32.1868 10.5966 32.3816C10.4467 32.5763 10.2557 32.7375 10.0365 32.8544C9.57213 33.098 9.02781 33.1534 8.5218 33.0083C8.01075 32.9041 7.56174 32.6094 7.27054 32.1873C7.13595 31.9892 7.04635 31.7655 7.00773 31.5309C6.96912 31.2964 6.98238 31.0566 7.04662 30.8275C7.15817 30.3238 7.44133 29.8717 7.85007 29.5446L6.58563 29.3393C6.14024 29.7983 5.8617 30.3869 5.79271 31.0149C5.72371 31.6428 5.86808 32.2755 6.20367 32.8159C6.67016 33.4791 7.38354 33.9393 8.19252 34.0988M15.6606 23.8358L10.537 20.7569L9.94429 21.6806L15.0679 24.8236L15.6606 23.8358ZM16.9777 22.0013L13.9879 19.5638L18.7558 19.9359L19.3486 19.2431L14.7123 15.3945L14.0142 16.2027L16.9909 18.6273L12.2493 18.2553L11.6302 18.9737L16.2665 22.8223L16.9777 22.0013ZM31.4661 11.084C31.7788 11.3102 32.1392 11.466 32.5213 11.5403C32.9033 11.6145 33.2975 11.6052 33.6754 11.5132C34.0533 11.4212 34.4056 11.2487 34.7068 11.0081C35.0081 10.7675 35.2508 10.4648 35.4174 10.1219C35.7888 9.41231 35.8734 8.5929 35.6545 7.82553C35.477 7.05007 35.007 6.36785 34.3374 5.91405C34.0246 5.68785 33.6643 5.53203 33.2822 5.45781C32.9002 5.3836 32.506 5.39283 32.1281 5.48486C31.7502 5.57689 31.3979 5.74941 31.0966 5.99C30.7954 6.23059 30.5527 6.53326 30.386 6.8762C30.0122 7.58504 29.9275 8.4054 30.149 9.17255C30.3258 9.9517 30.7957 10.6382 31.4661 11.0969M31.3739 7.4535C31.4719 7.24867 31.6166 7.06829 31.7969 6.92603C31.9772 6.78377 32.1883 6.68337 32.4144 6.63246C32.6384 6.57191 32.8738 6.5624 33.1022 6.60466C33.3306 6.64693 33.5459 6.73984 33.7315 6.8762C34.1621 7.18639 34.4544 7.64548 34.5481 8.15908C34.6916 8.64019 34.6494 9.15579 34.4296 9.60872C34.3292 9.80916 34.1849 9.98573 34.0068 10.126C33.8288 10.2663 33.6214 10.3669 33.3992 10.4207C33.1769 10.4745 32.9453 10.4802 32.7205 10.4375C32.4958 10.3947 32.2834 10.3045 32.0983 10.1732C31.6726 9.86073 31.3853 9.40194 31.2949 8.89031C31.1502 8.40932 31.1924 7.89329 31.4134 7.44067M5.86121 39.6665L10.8004 39.7691V38.6786L5.86121 38.5503V36.8698H4.74166L4.62312 41.3214H5.74267L5.86121 39.6665ZM7.67884 45.8499C7.87065 45.6946 8.02757 45.5024 8.13984 45.2854C8.19593 45.1703 8.24005 45.0499 8.27155 44.9262C8.27155 44.7338 8.36375 44.6183 8.37692 44.5542L8.46912 44.1437L8.56132 43.7075V43.5151C8.58965 43.4046 8.62937 43.2971 8.67986 43.1943C8.7221 43.0912 8.79758 43.0041 8.89496 42.9463C8.99234 42.8885 9.10635 42.863 9.21988 42.8736C9.32495 42.8591 9.43211 42.8729 9.52966 42.9137C9.62721 42.9544 9.71141 43.0204 9.77307 43.1045C9.93587 43.3074 10.0322 43.5532 10.0497 43.8101C10.0947 44.1845 10.0634 44.5637 9.95747 44.9262C9.86266 45.2628 9.70651 45.58 9.49647 45.8627L10.8136 45.7088C11.1675 45.0696 11.2883 44.3324 11.156 43.6177C11.1088 43.0751 10.8662 42.5662 10.4711 42.1809C10.2834 42.0041 10.0558 41.8725 9.80648 41.7968C9.55718 41.721 9.29313 41.7032 9.03548 41.7447C8.79656 41.7578 8.56433 41.8264 8.35813 41.9447C8.15193 42.0629 7.97774 42.2275 7.85007 42.4246C7.61155 42.8211 7.44658 43.2553 7.36273 43.7075C7.36273 43.8614 7.29688 44.0539 7.24419 44.2976C7.22011 44.4521 7.17584 44.603 7.11248 44.7466C7.08768 44.8305 7.03835 44.9054 6.97052 44.9624C6.90268 45.0193 6.81929 45.0558 6.73052 45.0673C6.33538 45.0673 6.0983 44.8364 6.01927 44.2463C5.94779 43.6346 6.07199 43.0163 6.37489 42.4759L5.17631 42.6171C4.91575 43.1749 4.81997 43.7924 4.89972 44.4003C4.93518 44.9268 5.16431 45.4232 5.5451 45.7986C5.71962 45.9569 5.92919 46.0739 6.15759 46.1406C6.38598 46.2074 6.62708 46.222 6.86223 46.1834C7.15203 46.1474 7.43051 46.0511 7.67884 45.9012M26.9747 13.8935L25.3019 10.4682L29.4772 12.7389L30.3202 12.3541L27.6859 7.01732L26.6981 7.46632L28.3577 10.8788L24.2614 8.62091L23.3921 8.98011L26.0264 14.3169L26.9747 13.8935ZM13.0395 51.3149L12.0385 51.8024L13.3556 54.3682L11.9595 55.0481L10.9321 53.0597L9.94429 53.5343L10.9848 55.5484L9.94429 56.0616L8.62717 53.4958L7.62616 53.9833L9.43062 57.4599L14.844 54.8044L13.0395 51.3149ZM12.5654 50.0321L11.0638 49.9551L10.4053 47.7999L11.5907 46.9019L11.2482 45.7858L6.08512 49.6344L6.38806 50.635L12.8947 51.1097L12.5654 50.0321ZM7.73153 49.7242L9.52282 48.4413L9.98381 49.9294L7.73153 49.7242ZM20.4944 18.2809L20.0203 16.9339L21.7984 15.5099L23.1155 16.2284L24.0375 15.4843L18.3475 12.3669L17.5178 13.034L19.5988 19.0635L20.4944 18.2809ZM20.8632 14.9198L19.6383 15.9076L18.9139 13.8294L20.8632 14.9198ZM42.7011 40.5003L50.8014 46.4144V43.9256L42.7011 37.9987V40.5003ZM70.9271 34.8557L72.0071 34.5863L71.2827 31.7896L72.7974 31.4176L73.3638 33.6113L74.4306 33.3547L73.8643 31.161L74.997 30.8788L75.7082 33.5985L76.7883 33.3291L75.8004 29.5061L69.9261 30.9429L70.9271 34.8557ZM69.0041 28.7877L75.4975 28.467L75.076 27.3765L70.4397 27.6459L73.7589 24.5285L73.2716 23.4253L68.5826 27.8384L69.0041 28.7877ZM67.384 25.4779L72.6525 22.4759L72.0861 21.5394L66.8177 24.5414L67.384 25.4779ZM75.8004 40.975C75.5099 40.9539 75.218 40.9933 74.9443 41.0904C74.7261 41.2009 74.5333 41.3537 74.3779 41.5394C74.2977 41.6398 74.2272 41.7472 74.1672 41.8602L73.9828 42.2065L73.7984 42.5914L73.614 43.0019L73.535 43.1815C73.4846 43.2861 73.4228 43.385 73.3506 43.4766C73.2967 43.5621 73.2176 43.6298 73.1237 43.671C73.0297 43.7122 72.9252 43.7249 72.8237 43.7075C72.7191 43.7001 72.6185 43.6651 72.5327 43.6064C72.4469 43.5476 72.379 43.4673 72.3364 43.374C72.2258 43.1417 72.1847 42.8838 72.2179 42.6299C72.2551 42.2574 72.3669 41.8956 72.5471 41.5651C72.7097 41.252 72.9282 40.9696 73.1925 40.7312L71.8754 40.6158C71.4094 41.1663 71.1452 41.8525 71.1247 42.5657C71.0558 43.1093 71.1864 43.6592 71.4934 44.118C71.6406 44.3292 71.8362 44.5041 72.0648 44.6288C72.2935 44.7535 72.5488 44.8246 72.8106 44.8364C73.0489 44.8753 73.2934 44.8571 73.5229 44.7833C73.7523 44.7096 73.9599 44.5825 74.1277 44.4131C74.4355 44.0932 74.685 43.7244 74.8653 43.3226L75.1024 42.7582C75.1584 42.6125 75.2337 42.4745 75.3263 42.3477C75.3668 42.2705 75.4295 42.2064 75.5066 42.1632C75.5837 42.1199 75.672 42.0993 75.7609 42.1039C76.1561 42.1039 76.3273 42.4503 76.2746 43.0532C76.2151 43.6685 75.9622 44.2509 75.5502 44.721L76.7619 44.8236C77.1384 44.3344 77.3665 43.7522 77.4205 43.143C77.4999 42.6204 77.383 42.0875 77.0912 41.6421C76.9535 41.4515 76.7726 41.2945 76.5624 41.1833C76.3522 41.072 76.1185 41.0095 75.8795 41.0006M71.1247 36.6004L73.5613 36.4208L73.6404 37.3316L71.3222 39.0635L71.4276 40.3464L73.8774 38.4862C74.0128 38.8057 74.2539 39.0721 74.5623 39.2431C74.8887 39.4144 75.2605 39.486 75.6292 39.4484C75.8684 39.4399 76.1031 39.3831 76.3186 39.2815C76.534 39.1799 76.7253 39.0358 76.8805 38.8582C77.039 38.6678 77.1559 38.4478 77.2239 38.2117C77.2918 37.9756 77.3094 37.7285 77.2756 37.4856L77.078 35.0353L71.0456 35.4971L71.1247 36.6004ZM76.077 36.2283L76.1824 37.5112C76.2119 37.7187 76.1602 37.9293 76.0375 38.1013C75.9735 38.1772 75.8931 38.2384 75.8021 38.2806C75.711 38.3227 75.6115 38.3447 75.5107 38.3451C75.4116 38.3583 75.3107 38.3503 75.2151 38.3215C75.1195 38.2926 75.0316 38.2438 74.9575 38.1783C74.8081 38.0261 74.7234 37.8244 74.7204 37.6139L74.615 36.331L76.077 36.2283ZM68.5958 16.9852L68.0031 16.254L63.2219 19.8589L63.9068 20.6927L66.9494 18.3323L65.6323 22.8095L66.2118 23.5151L70.9534 19.8461L70.2685 19.0122L67.2391 21.3598L68.5958 16.9852ZM49.155 11.5459L50.1165 10.4169L52.303 11.1353V12.5978L53.4357 12.9699L53.1723 6.61963L52.1581 6.28608L48.0487 11.1995L49.155 11.5459ZM52.2108 7.88967L52.2898 10.0834L50.7751 9.58307L52.2108 7.88967ZM41.0679 0C32.9454 0 25.0054 2.34596 18.2518 6.74121C11.4982 11.1365 6.23446 17.3836 3.12613 24.6927C0.0177943 32.0017 -0.795487 40.0444 0.789126 47.8036C2.37374 55.5628 6.28508 62.6902 12.0285 68.2843C17.772 73.8784 25.0896 77.688 33.056 79.2314C41.0223 80.7748 49.2797 79.9827 56.7839 76.9552C64.2881 73.9277 70.702 68.8008 75.2146 62.2228C79.7272 55.6448 82.1358 47.9113 82.1358 40C82.1219 29.3955 77.7906 19.2292 70.0919 11.7307C62.3932 4.23221 51.9555 0.0135781 41.0679 0ZM41.0679 78.4605C33.2528 78.4605 25.6133 76.2034 19.1153 71.9745C12.6173 67.7455 7.55272 61.7348 4.56202 54.7024C1.57133 47.6699 0.788823 39.9316 2.31347 32.4661C3.83811 25.0005 7.60143 18.1429 13.1275 12.7605C18.6536 7.37809 25.6943 3.71263 33.3592 2.22763C41.0241 0.742636 48.969 1.50479 56.1891 4.41772C63.4093 7.33065 69.5805 12.2635 73.9223 18.5925C78.2642 24.9216 80.5816 32.3625 80.5816 39.9743C80.5816 45.0284 79.5595 50.033 77.5738 54.7024C75.588 59.3717 72.6775 63.6144 69.0083 67.1882C65.3391 70.762 60.9832 73.5968 56.1891 75.531C51.3951 77.4651 46.2569 78.4605 41.0679 78.4605ZM57.7163 14.0346L55.3192 12.7646L57.6505 8.51828L56.6363 8.00513L53.7781 13.2008L57.2027 14.984L57.7163 14.0346ZM62.5238 18.3964C63.2361 18.2967 63.8796 17.9281 64.3151 17.3701L66.6201 14.8044L65.764 14.1116L63.4327 16.6774C63.197 16.9795 62.8542 17.1853 62.4712 17.2546C62.3046 17.2751 62.1355 17.2592 61.9761 17.2082C61.8166 17.1571 61.6708 17.0722 61.5492 16.9596C61.4185 16.8581 61.3128 16.7293 61.2398 16.5828C61.1669 16.4363 61.1286 16.2757 61.1277 16.1129C61.15 15.7355 61.3141 15.3794 61.5887 15.1123L63.92 12.5465L63.077 11.8409L60.7721 14.4067C60.2717 14.904 59.9885 15.5706 59.9818 16.2668C60.0018 16.5698 60.0833 16.8659 60.2216 17.138C60.3598 17.41 60.5521 17.6527 60.7873 17.8519C61.0225 18.0512 61.2959 18.203 61.5917 18.2987C61.8875 18.3943 62.1998 18.4319 62.5107 18.4092M44.0709 6.61963L45.0851 8.6594L45.7042 8.73637L47.2057 7.01732L46.6657 11.0199L47.7589 11.161L48.5623 5.3111L47.4164 5.13149L45.5593 7.37652L44.3212 4.81078L43.2148 4.66966L42.4114 10.4554L43.5178 10.5965L44.0709 6.61963ZM49.9717 72.4824C49.7082 72.4824 49.6819 72.8031 49.6556 73.0597V73.2521C49.5765 73.6369 48.9048 74.0218 48.3384 74.2014H48.1804C48.0488 74.2629 47.9048 74.2948 47.7589 74.2948C47.613 74.2948 47.469 74.2629 47.3374 74.2014C47.2471 74.1232 47.1764 74.0259 47.1307 73.9169C47.085 73.8079 47.0656 73.6902 47.074 73.5728C47.0619 73.4862 47.0753 73.398 47.1126 73.3186C47.1499 73.2391 47.2096 73.1715 47.2847 73.1238C47.2847 73.1238 47.3506 73.1238 47.3769 73.1238C47.4033 73.1238 47.5086 73.2393 47.8116 73.0597C47.8116 73.0597 47.8116 72.9827 47.8116 72.8544C47.8258 72.7533 47.8523 72.6543 47.8906 72.5593L48.0091 72.3412L48.0882 72.2001C48.1192 72.0869 48.1185 71.9677 48.0861 71.8548C48.0536 71.742 47.9907 71.6397 47.9038 71.5587C47.7989 71.4653 47.6706 71.4007 47.5317 71.3714C47.3929 71.3421 47.2486 71.3492 47.1135 71.3919C46.6657 71.5491 46.2507 71.7838 45.8886 72.0847C45.6177 72.3389 45.2807 72.5163 44.9139 72.5978C44.8267 72.5951 44.743 72.5634 44.6768 72.508C44.6768 72.508 44.5583 72.431 44.5056 72.508C44.4529 72.585 44.3212 72.6748 44.2027 72.9698C44.1901 73.0678 44.1901 73.1669 44.2027 73.2649C44.2027 73.4702 44.2027 73.7396 44.0578 73.8037C44.0414 73.8116 44.0234 73.8157 44.0051 73.8157C43.9868 73.8157 43.9688 73.8116 43.9524 73.8037C43.9337 73.7982 43.9168 73.7883 43.903 73.7749C43.8892 73.7614 43.879 73.7449 43.8734 73.7267C43.7944 73.5728 43.9787 73.2264 43.9787 73.2264V72.9314C43.968 72.8504 43.968 72.7685 43.9787 72.6876C44.1368 72.2771 44.5188 72.1873 44.9271 72.0975C45.1436 72.0192 45.3378 71.8917 45.4934 71.7255C45.5988 71.5843 45.4934 71.4432 45.3222 71.3278C45.2563 71.2401 45.1607 71.1778 45.0523 71.152C44.9438 71.1262 44.8296 71.1385 44.7295 71.1867C44.4984 71.3373 44.2901 71.5187 44.1105 71.7255C43.9316 71.9147 43.7425 72.0945 43.5441 72.2643H43.4782C43.0831 72.585 42.6221 72.9827 42.6353 73.1751C42.6283 73.1891 42.6247 73.2045 42.6247 73.22C42.6247 73.2356 42.6283 73.2509 42.6353 73.2649C42.8065 73.3419 42.9646 73.1751 43.0963 73.0212C43.228 72.8672 43.307 72.7902 43.3729 72.8416C43.4124 72.8765 43.4418 72.921 43.458 72.9706C43.4742 73.0202 43.4766 73.073 43.4651 73.1238C43.3539 73.2542 43.2892 73.4163 43.2807 73.5856C43.2807 73.9705 43.2807 74.0603 43.4387 74.2014L43.4651 74.4067C43.4919 74.5033 43.4919 74.6051 43.4651 74.7017V74.7915C43.4875 74.8248 43.5193 74.851 43.5568 74.8669C43.5942 74.8828 43.6355 74.8879 43.6758 74.8813C43.6758 74.8813 43.7417 74.8813 43.768 74.8813C43.7994 74.9432 43.8157 75.0112 43.8157 75.0802C43.8157 75.1491 43.7994 75.2172 43.768 75.279C43.768 75.279 43.5836 75.279 43.5178 75.279C43.4519 75.279 43.3202 75.4201 43.2807 75.5228V75.5997C43.2452 75.6595 43.2231 75.7259 43.2159 75.7946C43.2087 75.8633 43.2166 75.9326 43.239 75.9981C43.2614 76.0636 43.2979 76.1237 43.3459 76.1745C43.394 76.2252 43.4525 76.2654 43.5178 76.2925C43.5862 76.3425 43.6693 76.3695 43.7548 76.3695C43.8403 76.3695 43.9235 76.3425 43.9919 76.2925C44.2027 76.1899 44.229 75.8691 44.2685 75.5099V75.3945C44.2892 75.1368 44.3423 74.8826 44.4266 74.6376C44.4679 74.4863 44.4679 74.3271 44.4266 74.1757V74.009C44.4482 73.9232 44.4889 73.8432 44.5458 73.7745C44.6027 73.7058 44.6744 73.6501 44.7558 73.6113C44.8504 73.5515 44.9387 73.4828 45.0193 73.406L45.23 73.2008C45.4617 72.9387 45.7379 72.7173 46.0466 72.5465C46.1726 72.4712 46.2916 72.3854 46.4023 72.2899C46.544 72.1558 46.709 72.0472 46.8896 71.9692C47.0345 71.9692 47.3111 71.8281 47.4033 71.9692C47.4706 72.0814 47.494 72.2135 47.4691 72.3412C47.4551 72.3491 47.4392 72.3533 47.423 72.3533C47.4068 72.3533 47.3909 72.3491 47.3769 72.3412C47.2979 72.3412 47.2847 72.3412 47.2716 72.213C47.2584 72.0847 47.2716 72.1103 47.2716 72.0847C47.1587 72.0611 47.042 72.0611 46.9291 72.0847C46.8237 72.0847 46.7579 72.213 46.6657 72.3412C46.6022 72.4433 46.5271 72.5379 46.4418 72.6235C46.277 72.7907 46.1618 72.9983 46.1085 73.2242C46.0551 73.4501 46.0656 73.6858 46.1388 73.9063C46.1704 74.0503 46.2308 74.1867 46.3167 74.3078C46.4026 74.4289 46.5123 74.5323 46.6393 74.6119L46.7315 74.6761C47.074 75.0224 47.535 75.2918 48.6677 74.9198C49.321 74.7419 49.8838 74.3353 50.2483 73.7781C50.3084 73.6022 50.3324 73.4165 50.3188 73.2316C50.3053 73.0467 50.2544 72.8662 50.1692 72.7004C50.143 72.6508 50.1034 72.6091 50.0546 72.5797C50.0059 72.5504 49.9499 72.5344 49.8926 72.5337M70.5451 46.6196L76.4722 47.8384L76.6961 46.7736L70.769 45.5677L70.5451 46.6196ZM57.3739 67.7101C57.5715 67.3765 57.611 66.9917 57.229 66.9403C57.1556 66.9179 57.0776 66.9131 57.0019 66.9265C56.9262 66.9399 56.8549 66.9711 56.7944 67.0173C56.3992 67.2354 56.5573 67.415 56.2807 67.5689C56.0041 67.7229 56.0568 67.1456 56.2807 66.9788C56.7022 66.6324 57.1236 66.1065 56.9787 65.696C56.8339 65.2854 56.6495 65.016 56.149 65.4522C55.7827 65.7469 55.5051 66.1325 55.3455 66.5683C55.1795 67.2462 54.9273 67.9012 54.5948 68.5183C54.3708 68.8262 54.3313 68.6337 54.0679 68.8647C53.3303 69.4933 52.922 70.0577 53.2776 70.4426C53.3835 70.5345 53.5139 70.5953 53.6537 70.618C53.7936 70.6407 53.9372 70.6244 54.0679 70.5709C54.305 70.5067 54.4499 70.3143 54.4762 70.4426C54.4209 70.817 54.3328 71.1861 54.2128 71.5459C54.1139 71.8676 53.953 72.168 53.7386 72.431C53.3172 72.9442 53.1986 73.1238 53.3172 73.2906C53.3601 73.3332 53.4113 73.3671 53.4678 73.3903C53.5244 73.4134 53.5851 73.4253 53.6464 73.4253C53.7078 73.4253 53.7685 73.4134 53.825 73.3903C53.8816 73.3671 53.9328 73.3332 53.9757 73.2906C54.7092 72.4599 55.2044 71.4553 55.4114 70.3784C55.4969 70.1187 55.6026 69.8657 55.7275 69.6215C55.8329 69.3393 55.7275 69.1469 55.9251 68.9545C56.4124 68.3772 57.1236 68.1719 57.3739 67.7614M59.0071 69.1212C58.679 69.274 58.3276 69.3737 57.9666 69.4163C57.4399 69.4424 56.9121 69.3949 56.3992 69.2752C56.2016 69.2752 56.2807 69.8012 56.3992 70.0321C56.8339 70.6992 58.1773 70.4939 59.0335 70.2758C59.3574 70.1321 59.6625 69.9512 59.9423 69.737C60.232 69.5702 60.5086 69.5189 60.4955 69.3265C60.4823 69.1341 60.5745 69.0956 60.4955 68.9545C60.2452 68.6081 59.692 68.7235 59.0861 69.0571M31.4266 46.4015L39.5269 40.4747V37.9987L31.4266 43.9256V46.4015ZM74.7467 50.2502L69.9524 48.7492L69.5968 49.7883L74.2989 51.3149L73.7589 52.8929L74.8126 53.2393L76.2483 49.0186L75.1946 48.6722L74.7467 50.2502ZM44.6373 69.7627C44.7216 69.5937 44.843 69.4448 44.9929 69.3265C45.0584 69.2699 45.116 69.2052 45.1642 69.1341C45.2005 69.0857 45.2202 69.0273 45.2202 68.9673C45.2202 68.9073 45.2005 68.8489 45.1642 68.8005C45.1223 68.7463 45.0651 68.7053 44.9995 68.6825C44.934 68.6597 44.863 68.6561 44.7954 68.6722C44.5451 68.6722 44.2027 69.1597 44.0314 69.4163C43.9382 69.5674 43.8589 69.7262 43.7944 69.8909C43.7296 70.0619 43.6457 70.2254 43.5441 70.3784C43.5006 70.4666 43.4861 70.5656 43.5026 70.6621C43.5192 70.7585 43.5658 70.8476 43.6363 70.9172C43.6907 70.9974 43.7695 71.059 43.8615 71.0935C43.9536 71.128 44.0544 71.1336 44.15 71.1097C44.15 71.1097 44.15 71.1097 44.2422 70.9942C44.2592 70.9319 44.2943 70.8757 44.3434 70.8325C44.3925 70.7892 44.4534 70.7607 44.5188 70.7505C44.611 70.7505 44.6768 70.7505 44.7427 70.8659C44.7845 70.9167 44.8396 70.9554 44.9023 70.978C44.9649 71.0006 45.0327 71.0062 45.0983 70.9942C45.2695 70.9942 45.3881 70.7376 45.4934 70.558L45.5725 70.4169C45.8714 69.9926 46.2409 69.6197 46.6657 69.3137C46.7842 69.3137 46.8632 69.3137 46.9159 69.3137C46.9686 69.3137 46.9159 69.4163 46.995 69.5189V69.6087C47.0041 69.6456 47.022 69.6798 47.0471 69.7088C47.0723 69.7377 47.104 69.7606 47.1398 69.7755C47.1398 69.7755 47.2452 69.7755 47.232 69.8909C47.2189 70.0064 47.1267 70.0962 47.0213 70.1732C46.9159 70.2502 46.7974 70.3271 46.7974 70.4682C46.7868 70.538 46.7932 70.6091 46.8161 70.676C46.839 70.7429 46.8777 70.8035 46.9291 70.8531C46.9716 70.8756 47.0191 70.8873 47.0674 70.8873C47.1157 70.8873 47.1632 70.8756 47.2057 70.8531C47.3638 70.8531 47.4296 70.6478 47.4955 70.4811C47.5355 70.3727 47.5886 70.2694 47.6535 70.1732C47.7304 70.0728 47.8432 70.0041 47.9696 69.9807C48.0803 69.9601 48.1817 69.9063 48.2594 69.8268C48.2991 69.7865 48.3282 69.7375 48.3443 69.6839C48.3603 69.6303 48.3629 69.5737 48.3516 69.5189C48.3306 69.4495 48.2936 69.3856 48.2433 69.3323C48.1931 69.2789 48.131 69.2374 48.0618 69.211C48.0268 69.1914 47.9879 69.1792 47.9478 69.1751C47.9076 69.1709 47.867 69.1751 47.8285 69.1871C47.7901 69.1992 47.7546 69.219 47.7245 69.2452C47.6944 69.2714 47.6702 69.3035 47.6535 69.3393C47.6535 69.3393 47.6535 69.3393 47.5877 69.3393C47.456 69.211 47.5877 69.0699 47.5877 68.916C47.6278 68.8474 47.6588 68.7741 47.6799 68.6979C47.7021 68.6632 47.7138 68.6232 47.7138 68.5824C47.7138 68.5416 47.7021 68.5016 47.6799 68.467C47.6008 68.39 47.4428 68.467 47.2189 68.467C47.1199 68.5151 47.0342 68.5855 46.9686 68.6722C46.896 68.7642 46.8067 68.8425 46.7052 68.9031C46.4742 69.0185 46.2613 69.1654 46.073 69.3393C45.9897 69.4239 45.8915 69.4934 45.7832 69.5446C45.6869 69.5544 45.5898 69.5544 45.4934 69.5446C45.3047 69.5375 45.1176 69.582 44.9534 69.6729L44.8217 69.8653C44.8217 69.9551 44.7032 70.0577 44.6505 70.0705C44.5583 70.0705 44.6505 69.8653 44.6505 69.7113L44.6373 69.7627ZM31.3344 40.0898L39.4347 34.1629V31.6741L31.3344 37.601V40.0898ZM66.6333 64.9647C66.4752 64.7466 66.5411 64.721 66.462 64.644C66.383 64.567 66.1459 64.5157 66.1459 64.4387C66.1459 64.3618 66.4752 63.9897 66.5279 63.9128C66.5806 63.8358 66.844 63.6049 66.8967 63.3996C66.9494 63.1944 66.3698 62.9506 66.225 63.0404C66.0801 63.1302 65.7113 63.8486 65.4347 64.1693C65.3293 64.2848 65.2371 64.272 65.1713 64.1693C65.1054 64.0667 65.6586 63.297 65.4083 63.0789C65.1581 62.8608 64.6576 62.8736 64.3678 63.2842C64.3678 63.2842 64.0254 63.8101 63.6697 64.2335C63.3141 64.6568 63.2219 65.2726 63.5512 65.4009C63.8805 65.5292 64.1834 65.2213 64.2493 64.8493C64.2493 64.721 64.2493 64.7081 64.2493 64.6055C64.2493 64.5029 64.3283 64.4131 64.3283 64.3489C64.3283 64.2848 64.3283 64.0026 64.4732 64.0154C64.6181 64.0282 64.6839 64.2848 64.7234 64.3618C64.7899 64.54 64.7899 64.7352 64.7234 64.9134C64.4995 65.4779 64.1702 66.0295 64.4073 66.3246C64.4908 66.3584 64.5803 66.3759 64.6707 66.3759C64.7612 66.3759 64.8507 66.3584 64.9342 66.3246C65.0791 66.2476 65.0527 66.1193 65.1449 65.8114C65.2371 65.5035 65.4215 65.5548 65.461 65.465C65.5005 65.3752 65.5269 64.9775 65.6323 65.0032C65.7832 65.093 65.9097 65.2168 66.0014 65.3641C66.0931 65.5114 66.1472 65.678 66.1591 65.8499C66.186 65.9597 66.1881 66.0739 66.1654 66.1847C66.1426 66.2954 66.0955 66.4 66.0274 66.4913C66.0274 66.4913 65.7508 66.8377 65.9352 67.043C65.9966 67.1287 66.0875 67.1901 66.1915 67.216C66.2954 67.2419 66.4054 67.2305 66.5015 67.1841C67.0416 66.9019 66.9099 66.3117 66.8703 65.7088C66.8559 65.4333 66.7747 65.1652 66.6333 64.9262M68.227 52.9314L67.7133 53.8935L70.15 55.1122L72.1388 58.4092L72.7315 57.2931L71.4144 55.1507L73.9433 54.9326L74.5492 53.7909L70.5978 54.1373L68.227 52.9314ZM63.7751 63.4124C64.1834 62.9506 64.4468 62.4375 64.6839 62.1296C64.921 61.8217 65 61.8473 65.1186 61.6677C65.2371 61.4881 65.4083 61.6677 65.5269 61.6677C65.8562 61.6036 66.1459 61.3598 66.1328 61.1161C66.122 60.9951 66.0769 60.8794 66.0024 60.782C65.928 60.6846 65.8272 60.6092 65.7113 60.5645C65.1317 60.2951 64.7103 61.5651 64.3942 61.4625C64.3283 61.4625 64.3151 61.0135 64.3151 61.0135C64.3011 60.6704 64.2017 60.3358 64.0254 60.0385C63.8541 59.7819 63.7224 59.8204 63.5775 59.7178C63.4327 59.6151 63.3668 59.5253 63.1956 59.5125C63.1149 59.5006 63.0325 59.5066 62.9545 59.5302C62.8766 59.5538 62.8051 59.5942 62.7456 59.6486C62.686 59.7029 62.6398 59.7697 62.6105 59.8439C62.5813 59.9181 62.5696 59.9978 62.5765 60.077C62.5765 60.3849 62.8399 60.9108 62.6819 61.1033C62.5238 61.2957 62.2999 61.3085 62.2209 61.1033C62.1419 60.898 62.0892 60.4747 61.9575 60.3977C61.8258 60.3207 61.7072 60.4747 61.6019 60.6671C61.4965 60.8595 61.7072 61.2957 61.4833 61.3855C61.2594 61.4753 61.2462 61.2059 61.1409 61.2316C61.0355 61.2572 61.1409 62.0013 61.0223 62.1937C60.9023 62.3133 60.8298 62.4705 60.8177 62.6374C60.8057 62.8042 60.8548 62.9697 60.9565 63.1045C61.075 63.3483 61.3648 63.6818 61.5228 63.9641C61.6809 64.2463 62.0233 64.4772 61.997 64.6312C61.9706 64.7851 61.8916 64.6953 61.7862 64.8364C61.6809 64.9775 62.1024 66.1193 62.7346 66.44C62.8531 66.5042 63.1692 66.5298 63.2614 66.3502C63.3536 66.1706 62.7478 65.8371 62.616 65.5035C62.4843 65.17 63.0507 64.6312 63.3273 64.1437C63.4606 63.8479 63.6285 63.5681 63.8278 63.3098M62.5107 64.1822C62.4053 64.1822 62.2736 63.9769 62.0892 63.8101C61.9048 63.6434 61.4701 63.2457 61.4965 63.1943C61.5228 63.143 61.4965 62.7069 61.6019 62.7325C61.7072 62.7582 61.9575 63.22 62.0628 63.3611C62.1682 63.5022 62.3263 63.4766 62.4185 63.823C62.5107 64.1693 62.6424 64.1309 62.5107 64.195M62.6951 63.0148C62.5765 63.0148 62.5238 63.1046 62.4185 63.0148C62.3124 62.895 62.2407 62.75 62.2107 62.5946C62.1806 62.4391 62.1932 62.2787 62.2472 62.1296C62.4975 61.796 62.4843 62.3477 62.5107 62.4246C62.537 62.5016 62.8136 63.0276 62.6951 63.0661M63.0639 60.7569C63.1561 60.4618 63.0639 60.3977 63.1297 60.2694C63.1956 60.1411 63.4722 60.1411 63.6566 60.2694C63.841 60.3977 63.9463 60.6543 63.8278 60.7954C63.7092 60.9365 63.4985 60.7954 63.4063 60.7954C63.3141 60.7954 63.4063 61.1546 63.5117 61.1289C63.6171 61.1033 63.7619 61.27 63.8014 61.4496C63.841 61.6292 63.8014 61.6677 63.8014 61.7319C63.8014 61.796 64.0254 61.8473 64.0649 61.9371C64.1044 62.0269 63.9727 62.2835 63.8146 62.2707C63.6566 62.2579 63.6171 61.7832 63.5117 61.6934C62.9848 61.1802 63.0375 60.821 63.077 60.6927M63.1561 62.8608H63.077C62.9058 62.8608 62.9321 62.322 62.9453 62.3092C63.1956 62.1039 63.5775 63.0019 63.1561 62.9378M42.7011 34.1758L50.8014 40.1026V37.601L42.7011 31.6741V34.1758ZM41.0679 12.9185C35.5687 12.9185 30.193 14.5068 25.6206 17.4826C21.0482 20.4583 17.4844 24.6879 15.3799 29.6364C13.2755 34.5849 12.7249 40.03 13.7977 45.2833C14.8705 50.5366 17.5187 55.3621 21.4072 59.1495C25.2957 62.9369 30.25 65.5162 35.6435 66.5611C41.0371 67.606 46.6276 67.0697 51.7082 65.02C56.7888 62.9703 61.1313 59.4992 64.1865 55.0457C67.2417 50.5921 68.8724 45.3562 68.8724 40C68.8619 32.8207 65.9292 25.9383 60.7171 20.8618C55.505 15.7852 48.4389 12.9287 41.0679 12.9185ZM41.0679 66.145C35.7557 66.145 30.5628 64.6105 26.1461 61.7357C21.7293 58.8609 18.2871 54.7748 16.2548 49.9944C14.2225 45.2139 13.6915 39.9538 14.7288 34.8793C15.7661 29.8049 18.3252 25.144 22.0824 21.4863C25.8396 17.8286 30.6262 15.3383 35.8366 14.3304C41.0471 13.3226 46.4473 13.8424 51.3544 15.8242C56.2615 17.806 60.455 21.1607 63.4044 25.464C66.3538 29.7673 67.9266 34.8259 67.924 40C67.9171 46.9354 65.0853 53.5848 60.0504 58.4888C55.0154 63.3929 48.1885 66.151 41.0679 66.1578M41.0679 15.3945C36.0683 15.3945 31.181 16.8386 27.0242 19.5443C22.8673 22.25 19.6277 26.0956 17.7151 30.5948C15.8024 35.0939 15.3026 40.0445 16.279 44.8203C17.2553 49.5962 19.6639 53.9827 23.2 57.4252C26.7362 60.8676 31.2411 63.2112 36.145 64.1597C41.0488 65.1082 46.1313 64.6188 50.7496 62.7535C55.3679 60.8883 59.3145 57.7309 62.0902 53.6807C64.8659 49.6306 66.3461 44.8696 66.3435 40C66.333 33.4751 63.6663 27.2206 58.9281 22.608C54.1899 17.9954 47.767 15.4013 41.0679 15.3945ZM57.0314 38.3066C57.2224 38.4167 57.3874 38.5648 57.5158 38.7412C57.6441 38.9176 57.7328 39.1183 57.7762 39.3303C57.8196 39.5423 57.8167 39.7608 57.7676 39.9716C57.7185 40.1825 57.6244 40.3808 57.4914 40.5539C57.3584 40.7269 57.1894 40.8708 56.9956 40.976C56.8017 41.0812 56.5872 41.1455 56.3662 41.1647C56.1451 41.1838 55.9224 41.1574 55.7125 41.0871C55.5026 41.0169 55.3102 40.9044 55.1479 40.7569L54.0943 39.9872V42.4759L57.0446 44.6312C57.2356 44.7413 57.4006 44.8894 57.5289 45.0658C57.6572 45.2421 57.746 45.4429 57.7894 45.6549C57.8328 45.8669 57.8298 46.0854 57.7808 46.2962C57.7317 46.507 57.6376 46.7054 57.5046 46.8785C57.3715 47.0515 57.2026 47.1953 57.0087 47.3006C56.8149 47.4058 56.6004 47.4701 56.3793 47.4892C56.1583 47.5084 55.9355 47.482 55.7256 47.4117C55.5158 47.3414 55.3234 47.2289 55.1611 47.0815L54.1074 46.3117V48.7492L57.0578 50.9044C57.2488 51.0146 57.4138 51.1626 57.5421 51.339C57.6704 51.5154 57.7592 51.7161 57.8025 51.9281C57.8459 52.1401 57.843 52.3586 57.7939 52.5695C57.7448 52.7803 57.6507 52.9787 57.5177 53.1517C57.3847 53.3248 57.2158 53.4686 57.0219 53.5738C56.828 53.679 56.6136 53.7433 56.3925 53.7625C56.1714 53.7816 55.9487 53.7552 55.7388 53.685C55.5289 53.6147 55.3366 53.5022 55.1743 53.3547L42.7407 44.272V46.8249L55.4904 56.1385C55.675 56.2523 55.8333 56.4022 55.9554 56.5785C56.0775 56.7549 56.1608 56.954 56.1999 57.1633C56.2391 57.3726 56.2333 57.5876 56.1829 57.7946C56.1324 58.0016 56.0385 58.1961 55.907 58.366C55.7755 58.5359 55.6093 58.6774 55.4189 58.7815C55.2284 58.8857 55.0179 58.9503 54.8005 58.9712C54.5832 58.9922 54.3637 58.969 54.156 58.9032C53.9483 58.8374 53.7568 58.7303 53.5937 58.5888L42.7407 50.6607V59.1276C42.7407 59.5495 42.5686 59.9542 42.2623 60.2525C41.956 60.5508 41.5406 60.7184 41.1074 60.7184C40.6743 60.7184 40.2588 60.5508 39.9525 60.2525C39.6463 59.9542 39.4742 59.5495 39.4742 59.1276V50.6607L28.5816 58.5888C28.4185 58.7303 28.227 58.8374 28.0193 58.9032C27.8116 58.969 27.5922 58.9922 27.3748 58.9712C27.1574 58.9503 26.9469 58.8857 26.7564 58.7815C26.566 58.6774 26.3998 58.5359 26.2683 58.366C26.1368 58.1961 26.0429 58.0016 25.9925 57.7946C25.9421 57.5876 25.9362 57.3726 25.9754 57.1633C26.0145 56.954 26.0978 56.7549 26.2199 56.5785C26.342 56.4022 26.5004 56.2523 26.6849 56.1385L39.4347 46.8249V44.3361L27.001 53.4189C26.6657 53.6638 26.2442 53.769 25.8292 53.7113C25.4142 53.6535 25.0398 53.4376 24.7883 53.111C24.5368 52.7843 24.4288 52.3738 24.488 51.9696C24.5473 51.5654 24.769 51.2007 25.1044 50.9557L28.0547 48.7492V46.3117L27.001 47.0815C26.8388 47.2289 26.6464 47.3414 26.4365 47.4117C26.2266 47.482 26.0039 47.5084 25.7828 47.4892C25.5617 47.4701 25.3473 47.4058 25.1534 47.3006C24.9596 47.1953 24.7906 47.0515 24.6576 46.8785C24.5246 46.7054 24.4305 46.507 24.3814 46.2962C24.3323 46.0854 24.3294 45.8669 24.3728 45.6549C24.4162 45.4429 24.5049 45.2421 24.6332 45.0658C24.7616 44.8894 24.9266 44.7413 25.1175 44.6312L28.0679 42.4759V39.9872L27.0142 40.7569C26.6789 40.9503 26.2821 41.0162 25.8999 40.942C25.5178 40.8678 25.1772 40.6587 24.9437 40.3549C24.7101 40.0511 24.6001 39.6739 24.6346 39.2959C24.6691 38.9178 24.8458 38.5655 25.1307 38.3066L39.4347 27.8384V25.3496L27.001 34.4323C26.6657 34.6257 26.2689 34.6916 25.8868 34.6174C25.5046 34.5432 25.1641 34.3341 24.9305 34.0303C24.697 33.7265 24.5869 33.3493 24.6214 32.9713C24.6559 32.5933 24.8326 32.2409 25.1175 31.982L28.0679 29.8268V26.2476C28.0679 25.8257 28.24 25.4211 28.5463 25.1228C28.8526 24.8244 29.268 24.6568 29.7011 24.6568C30.1343 24.6568 30.5497 24.8244 30.856 25.1228C31.1623 25.4211 31.3344 25.8257 31.3344 26.2476V27.4278L39.4347 21.501V18.5119C39.4347 18.09 39.6067 17.6854 39.913 17.387C40.2193 17.0887 40.6347 16.9211 41.0679 16.9211C41.5011 16.9211 41.9165 17.0887 42.2228 17.387C42.5291 17.6854 42.7011 18.09 42.7011 18.5119V21.5138L50.8014 27.4407V26.2604C50.8014 25.8385 50.9735 25.4339 51.2798 25.1356C51.5861 24.8373 52.0015 24.6697 52.4347 24.6697C52.8678 24.6697 53.2833 24.8373 53.5895 25.1356C53.8958 25.4339 54.0679 25.8385 54.0679 26.2604V29.8396L57.0183 31.9949C57.2092 32.105 57.3743 32.2531 57.5026 32.4295C57.6309 32.6058 57.7196 32.8066 57.763 33.0186C57.8064 33.2306 57.8035 33.4491 57.7544 33.6599C57.7053 33.8707 57.6112 34.0691 57.4782 34.2422C57.3452 34.4152 57.1763 34.559 56.9824 34.6642C56.7885 34.7695 56.5741 34.8338 56.353 34.8529C56.1319 34.8721 55.9092 34.8457 55.6993 34.7754C55.4894 34.7051 55.2971 34.5926 55.1348 34.4452L42.7011 25.3624V27.8384L57.0314 38.3066ZM287.014 31.8922C287.37 31.8153 287.581 31.4817 287.831 31.0969C288.048 30.6393 288.399 30.2542 288.839 29.9896C289.279 29.7249 289.79 29.5925 290.307 29.6087C291.005 29.6087 291.427 30.1347 291.901 30.7505C292.146 31.2033 292.517 31.5802 292.971 31.8387C293.425 32.0971 293.944 32.2267 294.469 32.213C295.786 32.0975 297.024 30.635 298.091 29.3393L298.908 28.39C300.291 26.8762 306.56 21.6934 308.694 21.2957C309.708 21.1033 310.327 21.1289 310.617 21.3727C310.907 21.6164 310.933 22.2322 310.907 23.0404V23.7332C310.927 24.0255 311.016 24.3095 311.167 24.563C311.317 24.8166 311.526 25.0331 311.776 25.1956C312.145 25.5035 312.448 25.7858 312.369 26.1963C312.198 27.1584 311.315 27.5946 310.38 28.0564C309.445 28.5183 308.51 28.9801 308.246 30.0064C308.07 30.5217 308.021 31.0703 308.103 31.6076C308.186 32.1448 308.397 32.6555 308.72 33.0981C308.982 33.3621 309.306 33.5588 309.665 33.6707C310.023 33.7827 310.405 33.8063 310.775 33.7396C312 33.5985 312.738 32.4567 313.515 31.1738C313.974 30.3946 314.527 29.6711 315.161 29.0186C315.883 28.3276 316.849 27.9327 317.861 27.9153C318.725 27.8916 319.558 27.6044 320.245 27.0943C320.6 26.8402 320.888 26.5076 321.085 26.124C321.282 25.7404 321.382 25.3166 321.378 24.8877C321.309 24.3241 321.107 23.7838 320.787 23.3095C320.467 22.8352 320.038 22.44 319.534 22.1552C319.292 21.9689 319.014 21.8323 318.716 21.7537C318.418 21.6752 318.107 21.6564 317.802 21.6983C317.497 21.7403 317.203 21.8423 316.939 21.998C316.676 22.1537 316.447 22.3599 316.268 22.6042C316.03 22.8223 315.807 23.0276 315.675 23.0148L315.543 22.9121C314.727 21.7832 315.438 20.7826 316.202 19.7049C316.584 19.2101 316.902 18.6715 317.15 18.1013C317.297 17.8155 317.361 17.496 317.336 17.1773C317.31 16.8586 317.196 16.5527 317.005 16.2925C316.452 15.6639 315.24 15.5228 313.409 15.8691C312.573 16.1172 311.809 16.5571 311.183 17.152C310.506 17.7626 309.714 18.2415 308.852 18.5632C306.943 19.1702 305.129 20.0337 303.465 21.1289C302.728 21.6657 301.898 22.0697 301.015 22.322C300.249 22.3978 299.477 22.3978 298.71 22.322C297.064 22.1937 295.207 22.0526 294.443 22.6427L293.126 23.9256C292.559 24.5927 291.967 25.2726 291.545 25.2983L291.282 25.1828C290.702 24.6183 291.44 23.5664 292.151 22.5401L292.428 22.1424C293.294 20.9619 294.407 19.9738 295.694 19.2431C296.28 18.8845 296.816 18.4532 297.288 17.9602C297.616 17.6231 297.827 17.1947 297.893 16.7348C297.96 16.2749 297.877 15.8064 297.657 15.3945C297.408 14.9337 297.026 14.5542 296.557 14.3033C296.089 14.0524 295.555 13.9411 295.022 13.9833C293.073 14.1758 289.754 17.0237 288.213 18.7813C287.308 19.845 286.506 20.9873 285.816 22.1937C285.115 23.4145 284.275 24.5548 283.313 25.5933C282.259 26.6453 282.549 28.4541 283.313 29.7755C283.622 30.4686 284.147 31.0495 284.814 31.4363C285.48 31.823 286.255 31.996 287.027 31.9307M127.761 17.601C128.354 17.601 128.63 17.2162 129.078 17.1648C130.935 16.9468 132.937 17.6267 133.767 17.0622C136.981 14.8685 135.73 12.1745 132.173 12.059C130.84 12.083 129.534 12.4298 128.373 13.0681C127.212 13.7064 126.232 14.6161 125.522 15.7152C124.415 17.3573 127.129 17.601 127.721 17.601M118.673 17.2675C122.874 15.9846 119.661 11.1738 115.867 11.7126C114.899 11.7705 113.947 11.9829 113.049 12.3412C112.166 12.8031 112.495 13.3162 111.903 13.9577C111.593 14.2202 111.382 14.5761 111.303 14.9689C111.224 15.3617 111.282 15.7688 111.468 16.1257C112.166 18.0115 115.196 18.3451 118.66 17.2803M444.489 48.7492C443.449 48.4541 437.654 50.2502 434.598 50.4169C433.439 50.4811 433.096 49.9038 433.07 49.2623C432.991 47.043 440.09 47.2995 439.998 44.9647C439.866 41.5138 437.364 40.2566 433.728 40.8339C433.728 40.8339 429.277 41.7447 425.273 42.1167C421.901 42.4375 417.567 45.1058 418.529 47.3509C419.49 49.5959 422.612 49.5702 424.904 48.0821C425.681 47.5818 425.549 47.2995 425.997 46.6325C426.445 45.9654 427.314 46.068 427.749 45.6831C428.895 44.5414 429.461 43.7845 430.251 44.7595C430.541 45.1187 429.922 47.1584 429.698 47.6972C429.213 48.9768 428.28 50.0488 427.064 50.7248C423.007 52.4054 418.476 53.5215 418.107 56.2027C418.028 56.8185 419.583 58.6915 420.584 58.9994C421.585 59.3072 422.27 58.5247 424.285 57.5112C425.075 57.1135 426.919 57.6267 427.696 57.3188C429.013 56.7672 430.62 55.2277 431.002 55.8307C431.753 57.0366 431.134 60.2951 429.171 62.7197C427.999 64.1693 426.3 65.4394 425.115 65.2854C424.667 65.2213 421.927 65.5933 421.743 67.5433C421.598 68.2834 421.735 69.0493 422.128 69.6984C422.52 70.3475 423.142 70.8354 423.876 71.0712C428.104 72.3541 430.462 68.7492 433.491 65.5292C434.868 64.067 435.87 62.3087 436.415 60.3977C436.771 58.4862 437.258 58.7171 437.232 57.9089C437.232 56.3181 436.323 55.6511 436.758 55.3432C438.167 54.1501 440.815 54.7402 441.407 54.6761C442.369 54.5734 444.621 54.753 445.912 53.9577C448.414 52.431 445.648 49.1469 444.437 48.8262M383.309 37.755C385.706 36.2668 387.26 33.9063 385.074 32.3284C384.676 31.959 384.195 31.6863 383.668 31.5324C383.142 31.3786 382.585 31.3481 382.045 31.4432C378.752 31.533 379.134 33.1879 376.895 33.3162C375.92 33.3162 376.895 29.8396 378.778 29.4676C382.73 28.6081 387.208 26.5811 387.866 23.1815C388.406 20.3977 388.117 17.7165 383.335 18.8967C379.99 19.6111 376.899 21.1784 374.379 23.4381C370.428 27.1199 366.74 31.6485 362.867 33.5215C360.365 34.7402 360.773 33.4573 358.297 34.009C351.382 35.5869 346.798 37.9602 347.76 41.5138C348.471 43.9897 350.987 44.6697 352.396 44.9519C354.135 45.2854 355.676 44.5414 355.491 45.4779C355.307 46.4144 352.146 49.2495 350.025 51.7255C348.287 53.4629 346.227 54.8645 343.953 55.8563C339.462 57.7935 338.079 58.5247 338.316 59.9743C338.593 61.7447 340.437 62.5401 342.426 62.2835C344.665 62.0398 354.872 56.6132 361.656 48.2617C363.096 46.8688 364.642 45.5824 366.279 44.4131C367.925 42.9249 368.136 41.5266 369.861 40.821C375.011 38.7043 380.214 39.7049 383.256 37.8319M134.083 45.6831C130 46.3117 128.143 47.2354 126.892 46.0167C125.64 44.7979 128.209 44.0539 128.288 44.0539C132.41 44.0539 143.711 35.6382 137.073 29.6985C134.808 27.6716 136.48 25.7601 132.845 26.1065C132.529 26.1065 128.894 27.0558 128.196 26.5427C127.982 26.3223 127.836 26.0479 127.775 25.7507C127.713 25.4535 127.739 25.1455 127.849 24.8618C127.959 24.5782 128.149 24.3304 128.396 24.1467C128.644 23.963 128.939 23.8508 129.249 23.823C131.699 23.4638 135.835 23.4894 136.296 23.3483C140.814 22.0654 140.247 16.9339 134.715 18.4477C131.633 19.2688 129.328 19.8461 127.735 19.0122C127.603 18.948 125.996 18.0372 125.364 18.2553C124.732 18.4734 125.285 19.3457 123.954 19.4484C122.624 19.551 117.369 19.2559 114.366 20.4875C113.049 21.0006 110.125 20.1283 108.834 21.052C107.543 21.9756 105.515 25.5292 108.926 26.9403C110.414 27.5433 113.246 24.4644 117.29 24.1693C119.265 24.0282 119.924 22.3605 121.821 23.5664C122.558 24.0411 122.176 24.272 121.821 24.6055C118.159 25.9263 114.601 27.5085 111.178 29.3393C108.096 31.161 105.37 32.8672 106.687 36.0231C106.977 36.703 109.321 38.1527 107.346 39.0635C105.37 39.9743 102.801 41.796 102.578 43.3226C102.506 44.3948 102.506 45.4704 102.578 46.5427C102.867 49.1084 106.173 48.5439 106.068 49.5574C106.068 50.0064 103.579 50.3528 101.972 51.3278C100.905 51.982 100.799 53.8935 100.892 54.6504C101.037 55.9333 101.8 55.5613 104.422 55.5613C108.623 55.5613 109.94 55.0353 114.958 53.483C116.346 53.0391 117.817 52.9033 119.265 53.0853C120.583 53.4317 120.122 55.1122 118.594 55.5484C115.446 56.4464 102.38 60.2951 108.281 64.1437C110.065 64.9075 112.051 65.105 113.957 64.7081C115.011 64.3874 117.487 62.6427 118.686 63.6177C119.885 64.5927 117.619 68.8903 120.201 70.3528C121.873 71.3021 123.599 71.6357 124.06 70.3528C124.797 68.3643 124.442 63.0019 125.258 62.3605C127.669 60.4875 135.94 62.6042 137.033 59.2303C138.351 55.3047 136.072 53.6241 134.702 53.8422C132.239 54.2271 128.459 55.356 126.194 55.2405C125.298 55.2405 125.561 53.7396 125.904 52.6748C126.707 50.109 133.201 51.6998 137.863 51.4689C141.354 51.2893 141.09 51.8666 143.356 51.9435C146.556 52.0462 148.743 49.1469 146.899 45.619C146.201 44.3361 137.323 45.17 134.083 45.619M107.398 45.619C105.502 44.118 109.4 41.2829 110.454 41.3085C112.39 41.3085 109.453 47.2226 107.398 45.619ZM120.648 39.7691C120.122 42.5914 121.044 44.8236 120.346 45.3368C119.292 46.1065 117.711 46.0167 116.552 46.4528C114.392 47.2097 112.601 48.1462 112.14 47.9282C111.06 47.4535 112.733 47.1071 112.956 45.8627C113.773 41.4496 113.786 39.1661 115.156 38.3451C116.526 37.5241 117.58 37.5112 118.383 36.9724C120.003 35.9076 120.635 34.7915 120.833 35.1251C121.048 36.6718 120.985 38.2431 120.648 39.7691ZM119.858 31.084C117.29 32.957 113.602 35.6767 112.654 34.0346C111.705 32.3926 119.239 27.8768 120.793 28.3387C121.873 28.6466 121.61 29.814 119.858 31.084ZM127.129 34.2784C127.353 33.2521 126.615 31.7126 126.984 30.9173C127.55 29.6344 130.501 29.5061 130.593 29.9808C130.685 30.4554 129.565 32.2001 130.145 33.3804C130.724 34.5606 131.33 35.6639 132.7 35.4843C133.504 35.3817 133.253 36.3951 132.582 37.4727C132.081 38.2938 128.117 42.6042 126.878 41.5779C125.996 40.8595 125.746 36.9211 127.129 34.2784ZM454.631 34.4195C453.169 30.1732 444.371 34.4195 443.212 32.1873C442.975 31.7255 445.332 29.365 445.201 29.5189C446.931 27.7273 448.188 25.5522 448.862 23.1815C449.363 21.0904 448.546 20.6158 448.27 19.3329C448.262 18.2835 447.977 17.2537 447.44 16.3438C447.098 15.8796 446.652 15.4972 446.136 15.2254C445.62 14.9536 445.047 14.7995 444.461 14.7748C443.875 14.7501 443.291 14.8554 442.753 15.0827C442.215 15.3101 441.737 15.6536 441.355 16.0872C439.827 17.678 438.312 21.5908 436.455 21.7191C434.387 21.8602 433.465 20.8467 433.821 19.7306C434.348 18.1527 436.455 15.882 436.178 14.8813C436.007 14.2912 434.532 14.009 433.044 14.4323C431.555 14.8557 430.264 18.1398 428.644 17.4086C427.894 17.075 428.368 15.3175 427.762 14.9455C426.076 13.9192 423.956 18.9865 422.112 19.179C418.871 19.5125 417.897 20.8724 417.014 23.3611C416.369 25.1828 416.013 28.313 415.328 30.4811C414.525 32.9827 415.131 35.6126 414.182 36.2155C413.234 36.8185 413.287 36.0103 412.062 36.2155C410.284 36.4464 407.057 44.1052 408.334 48.9288C408.585 49.8396 410.073 51.4945 411.443 51.1482C413.972 50.4041 411.548 46.0167 412.694 43.6818C413.458 42.0911 419.451 41.5266 423.323 40.4233C425.542 39.6064 427.848 39.0383 430.199 38.73C434.651 38.4221 438.694 37.2418 441.434 36.9468C442.922 36.7928 444.516 37.152 446.03 36.857C447.756 36.5234 447.15 38.5632 447.901 39.0763C449.876 40.3592 452.656 40.6414 453.881 39.3201C454.463 38.6608 454.843 37.8546 454.975 36.9944C455.108 36.1343 454.989 35.255 454.631 34.458M421.203 30.1347C420.491 32.5465 421.967 32.0205 420.531 34.2527C419.714 35.5356 420.057 36.9211 419.056 36.5362C418.292 36.2283 418.937 34.3682 418.911 32.5593C418.911 29.9936 418.806 26.6581 419.227 26.517C419.951 26.2733 421.756 24.0924 422.191 24.6953C422.928 25.7216 421.413 28.8903 421.203 30.1347ZM426.168 31.5843C425.391 31.1482 424.851 31.2508 425.022 29.9808C425.444 27.1841 427.433 24.8493 428.842 24.6953C431.845 24.2591 428.842 26.9917 428.592 27.4663C427.999 28.4798 426.932 32.0077 426.168 31.5843ZM429.83 32.8672C429.83 32.8672 429.83 32.1488 429.83 32.1103C429.277 30.9429 431.911 28.6851 432.108 28.6979C434.427 28.9031 431.608 35.279 429.83 32.8672ZM441.236 24.1693C440.182 24.1693 439.05 25.619 439.998 26.4015C440.946 27.1841 440.472 28.3515 439.787 29.3906C439.511 29.8268 438.352 30.263 438.154 30.6735C437.877 31.3149 438.655 32.3412 438.431 33.0083C438.207 33.6754 436.152 34.2912 435.454 33.3932C434.348 32.1103 436.995 29.9936 437.008 29.0058C437.008 23.8743 439.26 22.2963 440.143 21.8473C442.105 20.8339 441.974 20.0128 443.054 19.7691C444.371 19.474 445.411 20.8724 445.517 22.5016C445.622 24.1309 444.924 25.8371 443.62 25.9397C442.316 26.0423 442.119 24.1565 441.249 24.1309M389.144 51.8024C386.527 51.7175 383.942 51.2148 381.491 50.3143C375.881 48.7492 372.851 44.9006 371.429 44.5927C370.006 44.2848 368.9 47.5818 369.071 49.5702C369.558 55.2405 378.91 58.3323 384.811 59.5125C387.089 59.9615 390.237 59.179 392.503 59.025C394.768 58.8711 396.875 59.4868 397.429 58.2296C397.982 56.9724 398.746 57.0237 398.535 55.6639C398.074 52.6235 394.162 51.533 389.144 51.7511M203.351 55.5997C202.033 54.5734 202.85 56.0103 199.136 55.5099C198.082 55.3688 193.288 53.8679 190.864 53.3804C189.033 52.8293 187.32 51.96 185.807 50.8146C184.726 49.9936 183.054 50.1604 184.766 47.8255C185.807 46.4144 183.923 45.3368 185.003 44.4901C186.083 43.6434 187.888 42.8095 189.033 41.8345C190.351 40.6543 191.773 38.4606 193.762 36.2925C195.751 34.1244 196.396 28.1847 194.144 27.0943C192.59 26.3502 190.482 26.7351 187.558 26.594C186.057 26.5298 184.371 29.1597 184.647 26.8377C184.832 25.2341 184.647 24.6183 185.965 23.8743C187.953 22.7325 195.672 22.7197 194.579 18.9609C193.709 15.9333 189.31 19.397 186.992 17.9602C185.912 17.306 186.491 14.0218 183.725 15.4715C183.344 15.6639 181.644 16.3053 181.315 16.8313C180.986 17.3573 181.17 19.5766 180.933 19.6023C178.305 19.8398 175.698 20.2687 173.136 20.8852C169.83 21.7191 167.064 20.5645 165.128 22.5016C164.291 23.1596 163.578 23.9539 163.02 24.8493C162.098 26.6453 163.679 28.6979 165.971 28.7749C166.959 28.7749 171.568 25.3752 173.781 24.7595C176.336 24.041 179.05 23.4124 179.748 24.2463C180.103 24.6568 179.985 25.7344 179.418 26.8121C177.364 30.9301 174.993 30.7377 173.175 31.7255C172.78 31.9436 172.477 31.1225 172.938 30.4426C173.544 29.5189 175.125 28.4798 175.006 28.1334C174.888 27.787 171.7 28.2104 169.145 29.4163C168.283 29.8415 167.489 30.3859 166.787 31.0327C164.667 32.7774 163.284 38.4477 164.153 43.2585C164.917 47.2482 164.785 50.6478 167.406 51.1738C170.528 51.8024 170.462 48.8775 169.843 44.2848C169.707 42.1139 170.349 39.9643 171.661 38.204C171.964 37.7293 172.346 34.7017 176.297 35.0096C176.468 35.0096 176.666 35.882 175.796 36.2925C174.664 36.857 173.531 38.2681 173.61 39.0507C173.689 39.8332 174.69 40.8082 175.164 41.95C175.638 43.0917 173.347 43.9897 176.033 45.3496C176.244 45.4522 175.125 46.7094 174.427 46.6325C174.097 46.6325 173.979 46.0808 173.663 46.1065C172.688 46.2219 172.346 48.7364 172.346 49.0314C171.469 50.7772 170.189 52.301 168.605 53.483C165.747 56.1528 163.071 59.0027 160.597 62.0141C158.424 64.7723 160.044 66.5811 163.916 66.3374C165.641 66.2348 168.605 62.4888 170.12 60.8339C171.186 59.628 173.505 57.1392 174.927 56.8056C176.35 56.4721 174.413 65.7858 175.072 66.7607C176.231 68.3643 179.827 68.9288 179.84 66.2091C179.84 64.9262 179.603 63.4253 179.524 61.5779C179.524 60.1411 179.827 58.4092 179.866 57.1007C179.866 55.2277 179.945 53.3932 180.433 53.2521C181.539 53.0725 182.211 54.6761 184.226 56.3181C188.941 60.1668 197.397 62.6555 203.232 62.3861C206.736 62.2322 208.237 59.8204 205.089 56.9852C204.378 56.331 203.851 55.882 203.469 55.5869M183.264 40.0513C183.567 39.0122 184.239 36.6902 182.672 36.1257C181.104 35.5613 181.262 32.0718 182.58 32.3926C185.016 32.9699 188.704 32.1488 188.915 32.6748C189.797 34.83 187.598 37.8063 185.714 39.474C185.016 40.077 184.463 41.2572 184.042 41.6292C182.922 42.6171 182.724 41.9243 183.264 40.0513ZM261.475 30.3143C258.459 29.6087 254.363 33.0725 252.848 31.7255C252.229 31.161 253.138 29.66 253.151 28.6979C253.179 28.0223 252.946 27.361 252.497 26.8453C252.048 26.3296 251.416 25.9972 250.728 25.914C249.898 25.914 249.727 24.8621 250.648 24.6312C251.756 24.3586 252.891 24.208 254.033 24.1822C256.668 23.9513 258.103 23.5279 259.302 21.0135C259.443 20.4727 259.389 19.9013 259.149 19.3947C258.909 18.888 258.498 18.4768 257.985 18.2296C256.457 17.5112 252.19 18.2296 247.751 19.0763C242.957 20.0641 237.886 20.8595 237.214 22.7453C236.885 23.669 236.055 24.7979 235.725 25.9525C235.238 27.6203 235.054 29.1084 234.263 29.8781C231.8 32.3156 231.748 36.4208 230.944 35.1764C230.391 34.3297 229.008 34.6504 228.139 34.6248C227.731 34.6248 227.572 33.5471 227.941 33.0725C228.31 32.5978 228.442 32.957 229.035 32.585C230.641 31.5715 232.419 29.365 232.525 28.018C232.775 24.6312 233.631 21.95 231.787 20.3207C230.914 19.6781 229.911 19.2226 228.844 18.9838C227.777 18.745 226.671 18.7285 225.597 18.9352C224.104 19.1234 222.666 19.6034 221.369 20.3464C219.406 21.6292 219.182 24.3361 218.498 27.6844C217.921 29.4066 217.481 31.1693 217.18 32.957C216.97 35.6126 216.759 39.3714 216.706 41.2059C216.575 45.4779 216.956 48.3643 218.498 51.084C219.301 52.4952 219.209 54.7274 221.435 54.4323C223.279 54.1886 221.119 47.7742 221.092 44.6568C220.995 44.0862 221.031 43.5016 221.197 42.9463C221.364 42.3911 221.656 41.8795 222.054 41.4496C222.344 41.2316 222.502 40.5901 223.121 40.7569C223.74 40.9237 223.121 42.8865 224.043 42.7197C225.649 42.4503 226.124 40.372 227.52 40.8595C228.626 41.2444 227.52 43.1559 226.427 44.4516C224.346 47.0173 223.937 51.0455 227.546 51.3149C229.087 51.4304 230.431 49.1725 230.786 47.0815C231.05 45.4394 230.694 44.5157 231.037 43.2328C231.313 42.2065 232.13 41.8473 232.564 40.5773C232.917 39.2092 233.357 37.8639 233.882 36.5491C234.685 34.8557 235.963 33.0468 236.753 31.6485C237.46 30.1624 238.397 28.7909 239.532 27.5818C240.665 26.5683 242.43 25.7216 243.72 26.2989C244.642 26.6838 241.653 29.1982 239.993 31.4304C237.606 34.5716 236.439 38.4351 236.7 42.3348C236.766 44.0795 236.7 48.9288 238.109 49.7242C238.513 50.0089 238.98 50.1958 239.473 50.2694C239.965 50.343 240.469 50.3012 240.941 50.1475C243.576 49.3778 241.639 44.644 242.785 42.2707C243.036 41.7575 243.18 40.8595 244.102 41.1289C245.024 41.3983 244.761 51.6228 244.55 57.6395C244.499 61.1874 244.723 64.734 245.222 68.2489C245.367 69.5318 245.564 70.8146 247.593 70.8146C250.477 70.8146 250.398 64.8236 250.346 61.1033C250.346 58.0244 250.451 53.406 251.478 51.6357C252.506 49.8653 255.864 47.9538 257.893 47.0943C259.921 46.2348 261.304 43.3868 262.345 42.1681C263.754 40.526 264.36 35.7537 264.386 34.0603C264.386 31.7511 263.49 30.7633 261.528 30.3015M226.677 28.0949C226.973 29.4876 226.739 30.9374 226.018 32.1745C225.663 33.1366 227.559 33.6754 226.176 34.3554C225.255 34.814 224.472 35.4991 223.906 36.3429C223.34 37.1868 223.01 38.16 222.949 39.1661C222.844 39.7563 222.106 39.7049 221.896 39.1661C221.227 37.4528 221.19 35.5665 221.79 33.8294C222.818 31.2636 223.042 29.4035 223.924 27.7486C225.03 25.6575 226.822 24.5414 227.335 24.9519C228.336 25.7216 226.585 27.1584 226.69 28.0821M244.853 33.2136C244.076 35.1251 242.772 36.1129 241.837 35.433C241.152 34.9455 243.523 31.8537 244.471 29.9936C245.67 27.6716 246.078 27.9538 246.723 28.2874C247.369 28.6209 245.894 30.5965 244.827 33.2136M256.681 41.8986C255.272 43.1815 254.442 43.823 253.362 43.8743C252.795 43.8743 251.439 42.8351 251.636 42.1809C252.11 40.526 251.478 40.0257 251.636 39.1148C251.979 37.6267 254.139 37.7421 255.43 37.4984C257.168 37.1777 258.064 36.3438 258.499 37.4984C258.439 39.1313 257.769 40.6868 256.615 41.873M329.676 49.3778C327.647 49.1084 327.042 51.4945 326.475 53.4189L326.027 54.8685C324.934 57.678 319.257 59.8461 314.463 60.449L313.146 60.6414C310.828 61.0006 308.997 61.27 306.692 59.6793C305.691 58.9865 305.164 56.6645 305.533 54.5478C305.549 53.8583 305.767 53.1877 306.161 52.6149C306.556 52.0422 307.11 51.5911 307.759 51.3149C308.22 51.1738 308.312 51.3149 308.457 51.61C308.799 52.2514 309.287 52.6876 311.842 51.61C312.066 51.5202 312.25 51.0327 312.593 50.0834C312.827 49.3232 313.15 48.5915 313.554 47.9025L314.727 46.4272L315.517 45.4009C315.891 44.5698 316.031 43.6569 315.925 42.7555C315.819 41.854 315.469 40.9962 314.911 40.2694C314.224 39.4354 313.326 38.7906 312.305 38.3991C311.284 38.0075 310.175 37.8828 309.089 38.0372C305.572 38.3964 301.99 40.2053 298.829 41.8088C295.668 43.4124 292.823 44.8364 290.729 44.5157C290.085 44.3739 289.507 44.0316 289.082 43.5407C288.687 43.1687 288.305 42.7967 287.765 42.8608C287.054 42.9506 286.171 43.8743 284.815 45.9782C284.478 46.6952 284.23 47.4489 284.077 48.2232C283.669 49.7883 283.155 51.7511 282.273 52.1616C282.149 52.2187 282.014 52.2483 281.877 52.2483C281.741 52.2483 281.606 52.2187 281.482 52.1616C281.344 52.1056 281.222 52.0181 281.126 51.9065C281.029 51.7949 280.962 51.6624 280.929 51.5202C280.587 50.2373 282.378 47.7999 282.391 47.787C282.404 47.7742 283.168 45.5677 283.168 45.5677C283.307 44.9255 283.533 44.3042 283.84 43.7203C285.618 40.7826 288.647 40.6029 291.848 40.4105C293.605 40.0962 295.259 39.3746 296.669 38.3066C297.617 37.3829 296.669 36.0616 295.931 35.0096L295.786 34.8172C294.548 33.0468 293.152 32.4439 291.466 32.957C289.51 33.8324 287.688 34.9679 286.053 36.331C284.453 37.5631 282.787 38.7107 281.061 39.7691L280.468 40.1026C276.978 42.0526 272.947 44.4901 272.855 46.0295C272.845 46.1772 272.875 46.3248 272.943 46.4576C273.01 46.5904 273.111 46.7038 273.237 46.7864C274.383 47.6074 275.871 46.4913 277.123 45.5035C278.11 44.7466 279.032 44.041 279.493 44.4901C279.566 44.5508 279.624 44.6255 279.665 44.7094C279.706 44.7934 279.728 44.8847 279.731 44.9775C279.731 45.3239 279.441 45.7601 278.835 46.2604L278.558 46.517C277.521 47.3776 276.8 48.544 276.504 49.8396C275.608 52.7261 276.108 53.483 276.938 54.7402L277.768 56.1257C278.029 56.8782 278.07 57.6866 277.887 58.4606V59.2046C278.017 59.4921 278.231 59.7357 278.503 59.9046C278.775 60.0736 279.092 60.1603 279.414 60.1539C279.744 60.1539 279.941 60.1539 280.099 60.5645C280.225 61.0857 280.227 61.6278 280.106 62.1499C279.985 62.6721 279.744 63.1608 279.401 63.5792C279.401 63.5792 279.283 63.5792 279.177 63.374C278.914 62.7453 277.781 62.7325 277.36 62.7325C276.214 62.7325 275.713 63.5536 275.266 64.2976L274.936 64.8236C273.053 67.3893 274.33 69.1212 275.819 70.4298C276.246 70.9352 276.83 71.2921 277.483 71.4471C278.136 71.6021 278.823 71.5467 279.441 71.2893C281.127 70.7761 281.825 68.3002 282.549 65.6703L282.786 64.8236C283.281 62.8618 284.019 60.9662 284.986 59.179C285.628 58.1273 285.965 56.9258 285.961 55.7024L286.158 54.4195C286.421 53.7837 286.827 53.2138 287.347 52.7519C287.867 52.2899 288.487 51.9479 289.161 51.7511C289.971 51.3977 290.743 50.968 291.466 50.4682L293.35 49.1084C295.462 47.386 297.863 46.0319 300.449 45.1058C301.512 44.6975 302.535 44.195 303.505 43.6049C304.773 42.7695 306.181 42.1573 307.667 41.796H307.943C309.129 41.6164 311.342 41.27 311.895 42.0911C312.257 43.0385 312.257 44.0814 311.895 45.0289C311.811 45.1633 311.685 45.2675 311.535 45.3254C311.385 45.3833 311.22 45.3918 311.065 45.3496C310.433 45.2341 310.42 44.8621 310.446 44.2848C310.49 44.0987 310.487 43.9051 310.439 43.72C310.391 43.5348 310.299 43.3635 310.169 43.22C309.335 42.8847 308.437 42.7272 307.535 42.7582C306.758 42.7582 306.034 43.5151 305.191 44.3874C304.568 45.0798 303.865 45.6997 303.096 46.2348C300.159 48.1078 298.895 52.1745 299.145 55.2149C299.198 56.3522 299.482 57.468 299.979 58.4983C300.476 59.5285 301.178 60.4531 302.043 61.2187L302.622 61.8217C304.756 64.9134 307.996 67.5561 317.11 66.0936C323.117 65.1315 328.069 62.6427 330.703 59.2688C331.396 57.9948 331.824 56.6001 331.962 55.1647C332.1 53.7293 331.945 52.2814 331.507 50.9044C331.379 50.4901 331.137 50.1178 330.808 49.8282C330.478 49.5386 330.073 49.3429 329.636 49.2623" fill="var(--fill-0, white)"/>
</g>
<defs>
<clipPath id="clip0_0_161">
<rect width="455" height="80" fill="white"/>
</clipPath>
</defs>
</svg>
