<svg width="560" height="200" viewBox="0 0 560 200" fill="none" xmlns="http://www.w3.org/2000/svg">
<path d="M106.049 40.165C120.427 40.3211 121.451 40.3987 124.701 41.5693C136.717 45.8982 145.787 56.1751 148.264 68.2686C148.97 71.7181 149.07 76.6379 148.936 101.453L148.778 130.587L147.119 135.239C144.874 141.537 142.598 145.201 138.164 149.661C133.997 153.853 129.325 156.841 124.173 158.607C120.805 159.763 120.121 159.79 91.4161 159.938C63.3716 160.083 61.9148 160.043 57.8155 159.005C52.5532 157.673 48.9789 155.959 45.0089 152.866C40.9011 149.666 37.2937 145.27 34.8126 140.439C31.398 133.793 31.0421 131.416 31.0421 115.288V101.119H51.0528L51.2354 113.729C51.4148 126.097 51.4454 126.398 52.8292 129.364C54.7531 133.488 58.1785 136.807 61.9844 138.235C64.9948 139.366 65.498 139.384 90.7745 139.234C116.444 139.083 116.505 139.08 118.773 137.865C122.275 135.988 125.054 133.176 126.67 129.876L128.141 126.871V72.7139L126.732 70.0586C125.042 66.8766 122.125 63.9875 118.881 62.2832C116.601 61.0855 115.953 61.026 103.668 60.8662L90.836 60.6982V40L106.049 40.165ZM71.5421 101.125H51.2921V80.875H71.5421V101.125ZM71.0137 40.0596H71.2579V60.7676H71.0137V61H51.1495V80.9434H51.0137V81H31.0137V61H31.0421V60.7676H51.0137V40H71.0137V40.0596Z" fill="url(#paint0_linear_406_48)"/>
<path d="M210.834 43.2686C227.319 43.2686 240.682 56.6319 240.682 73.1162C240.682 89.6007 227.319 102.965 210.834 102.965C194.35 102.965 180.987 89.6007 180.987 73.1162C180.987 56.6319 194.35 43.2686 210.834 43.2686ZM210.635 53.5479C199.937 53.5479 191.264 62.2205 191.264 72.9189V73.71C191.264 84.4085 199.937 93.081 210.635 93.0811C221.334 93.0811 230.006 84.4085 230.006 73.71V72.9189C230.006 62.2205 221.334 53.5479 210.635 53.5479Z" fill="black"/>
<path d="M265.977 60.2676C272.538 60.2676 278.42 63.1736 282.406 67.7686C280.552 69.83 278.631 71.9471 276.765 73.9971C274.315 70.7042 270.394 68.5705 265.975 68.5703C258.551 68.5703 252.533 74.5882 252.533 82.0117C252.533 89.4352 258.551 95.4531 265.975 95.4531C270.075 95.453 273.746 93.6157 276.211 90.7207L281.909 96.8037C277.939 101.079 272.271 103.755 265.977 103.755C253.968 103.755 244.234 94.0193 244.234 82.0107C244.234 70.0023 253.968 60.2676 265.977 60.2676Z" fill="black"/>
<path d="M302.751 61.4538H315.006V69.3605H302.751V90.3133C302.751 92.9333 304.875 95.0573 307.495 95.0573H314.216V102.964H302.751C297.511 102.964 293.263 98.7161 293.263 93.476V69.3605H284.961V61.4538H293.263V49.5938H302.751V61.4538Z" fill="black"/>
<path d="M339.124 60.2676C351.132 60.2678 360.867 70.0024 360.867 82.0107C360.867 94.0192 351.132 103.755 339.124 103.755C327.115 103.755 317.38 94.0193 317.38 82.0107C317.38 70.0023 327.115 60.2676 339.124 60.2676ZM339.121 68.5703C331.698 68.5705 325.679 74.5883 325.679 82.0117C325.679 89.4351 331.698 95.453 339.121 95.4531C346.544 95.4531 352.562 89.4352 352.562 82.0117C352.562 74.5882 346.544 68.5703 339.121 68.5703Z" fill="black"/>
<path d="M374.315 78.6455L391.311 61.6504H402.974L383.8 81.0215L404.95 103.16H393.09L374.315 83.5078V102.963H364.828V44.4531H374.315V78.6455Z" fill="black"/>
<path d="M425.702 60.2676C437.539 60.268 447.166 69.7272 447.438 81.499C447.513 82.8913 447.484 84.2055 447.446 85.9639H413.668C415.335 91.126 420.18 94.8604 425.897 94.8604C430.351 94.86 434.275 92.5918 436.579 89.1484L442.65 95.6289C438.665 100.583 432.555 103.755 425.702 103.755C413.694 103.755 403.959 94.0193 403.959 82.0107C403.959 70.0023 413.694 60.2676 425.702 60.2676ZM425.897 69.1631C420.18 69.1631 415.336 72.8964 413.668 78.0576H438.123C436.455 72.8967 431.612 69.1635 425.897 69.1631Z" fill="black"/>
<path d="M474.374 60.2676C483.66 60.2679 490.812 68.0326 490.941 75.29H490.943V75.416C490.943 75.4401 490.944 75.4642 490.944 75.4883C490.944 75.5098 490.943 75.5312 490.943 75.5527V103.754H481.454V76.4619C481.43 75.2458 478.447 69.7563 470.982 69.7559C466.59 69.7559 462.687 72.3698 460.206 76.4219V103.754H450.625V61.4531H460.206V68.8926C463.241 63.6968 468.453 60.2677 474.374 60.2676Z" fill="black"/>
<path d="M527.102 72.7199V64.6155C511.684 57.4996 495.277 61.0571 495.277 72.7199C495.277 91.103 520.184 82.9987 520.184 91.103C520.184 100.789 495.277 90.1146 495.277 90.1146V99.6028C495.277 99.6028 524.928 114.23 528.881 92.0913C530.858 76.4757 504.37 78.4525 504.37 73.313C504.37 68.1735 516.215 67.6958 527.102 72.7199Z" fill="black"/>
<path d="M412.651 138.258L410.286 139.927C409.833 139.093 408.964 137.91 408.164 136.901C389.69 138.014 387.011 138.153 385.794 138.605L385.029 135.857C385.585 135.753 386.629 134.953 387.707 133.874C388.855 132.9 392.856 128.343 395.361 124.342L398.04 125.594C397.17 126.812 396.196 128.029 395.222 129.212L395.013 129.491C394.804 129.734 394.63 129.943 394.422 130.186L394.213 130.43C392.647 132.309 391.012 134.048 389.482 135.474L406.25 134.639C404.754 132.9 402.806 131.021 401.275 129.63L403.432 128.203C404.371 129.038 405.45 130.047 406.528 131.126L406.807 131.404C409.172 133.77 411.538 136.449 412.651 138.258ZM409.033 141.284V154.922H387.533V141.284H409.033ZM390.282 152.243H406.181V143.963H390.282V152.243Z" fill="black"/>
<path d="M359.182 143.824V156.418H356.468V143.824H342.796V141.146H356.468V129.456H344.605V126.708H371.184V129.456H359.182V141.146H373.133V143.824H359.182ZM369.132 131.439C368.575 132.518 367.914 133.805 367.253 135.057L367.079 135.405C366.244 137.006 365.444 138.536 364.853 139.65L362.522 138.85C363.044 137.736 363.809 136.136 364.505 134.501L364.679 134.188C365.27 132.866 365.827 131.579 366.244 130.604L369.132 131.439ZM352.746 138.641L350.172 139.545C349.719 137.667 348.258 133.875 347.006 131.509L349.441 130.744C350.798 133.074 352.329 136.727 352.746 138.641Z" fill="black"/>
<path d="M317.817 137.491C315.729 138.292 313.329 138.987 310.824 139.544L310.476 139.648C310.372 139.648 310.267 139.683 310.128 139.718L309.78 139.787C309.398 139.892 308.98 139.961 308.563 140.031L308.215 140.101L307.867 140.17C307.797 140.205 307.762 140.205 307.693 140.205L307.345 140.275C305.884 140.553 304.423 140.796 303.031 141.005L302.509 138.5C304.492 138.326 306.719 138.013 308.98 137.561L309.328 137.491C311.276 137.109 313.224 136.622 314.964 136.1C313.085 135.056 311.52 133.665 310.198 132.134C309.954 132.273 309.746 132.447 309.502 132.621L309.224 132.795L308.945 133.004C308.806 133.108 308.667 133.177 308.528 133.282L308.11 133.595C307.206 134.221 306.301 134.847 305.292 135.404L303.97 133.177C308.284 130.986 311.868 127.263 313.503 124.445L316.356 125.106C315.625 126.046 315.173 127.124 314.372 127.959H327.558L328.045 127.716L329.715 128.898C327.766 131.821 324.461 134.395 320.739 136.169C324.253 137.178 328.845 137.804 332.637 138.013L332.15 140.588C326.549 140.135 321.574 139.057 317.817 137.491ZM311.902 130.673C313.329 132.447 315.347 133.873 317.851 134.952C320.878 133.699 323.661 132.029 325.54 130.186H312.355L311.902 130.673ZM316.982 145.806C314.929 151.059 310.407 154.886 303.727 156.486L302.962 153.947C308.597 152.938 312.355 149.911 314.199 145.806H305.014V143.44H315.103C315.347 142.431 315.625 141.075 315.59 139.927L318.443 140.275C318.269 141.249 318.06 142.605 317.817 143.44H329.958C329.958 143.44 329.889 144.345 329.819 144.658C329.123 150.503 328.219 154.016 327.105 155.025C326.549 155.756 325.436 155.965 324.218 156.034C323.313 156.034 321.296 156.034 319 155.895L318.93 153.46C320.739 153.634 322.757 153.703 323.557 153.703C324.218 153.703 324.635 153.634 324.983 153.355C325.714 152.729 326.479 149.981 327.001 145.806H316.982Z" fill="black"/>
<path d="M272.938 155.93C272.103 156.347 270.433 156.452 267.963 156.452L267.789 153.808C268.972 153.843 270.607 153.843 270.99 153.808C271.442 153.773 271.547 153.564 271.547 153.112V144.345H266.259C265.98 148.172 265.145 153.46 263.719 156.417L261.353 155.234C263.58 150.677 263.997 142.78 263.997 138.013V125.663H274.156V153.147C274.156 154.434 273.773 155.512 272.938 155.93ZM292.942 154.26L291.551 156.591C289.463 155.408 287.237 153.356 285.671 151.407C284.245 153.251 282.61 155.199 280.696 156.313L279.374 154.121C281.009 153.216 282.749 151.407 284.245 149.494C282.436 146.885 281.079 143.093 280 139.718H279.2V156.452H276.661V125.767H291.133V132.377C291.133 133.63 290.681 134.395 289.707 134.743C288.663 135.091 286.61 135.091 283.827 135.091L283.653 132.76C284.349 132.76 285.149 132.795 285.88 132.795H286.263C286.993 132.795 287.585 132.76 287.828 132.76C288.35 132.76 288.454 132.656 288.454 132.273V128.377H279.2V137.178H290.089L290.542 137.109L292.142 137.631C291.307 142.049 289.324 146.676 287.271 149.529C288.837 151.303 291.133 153.356 292.942 154.26ZM266.537 133.63H271.547V128.203H266.537V133.63ZM266.502 141.805H271.547V136.03H266.537V138.466C266.537 139.057 266.537 139.718 266.537 140.379L266.502 140.762C266.502 141.11 266.502 141.458 266.502 141.805ZM282.331 139.718C283.201 142.292 284.106 145.389 285.671 147.511C287.063 145.424 288.35 142.432 289.115 139.718H282.331Z" fill="black"/>
<path d="M236.301 134.432C235.848 141.216 233.239 150.887 223.637 156.732L221.967 154.296C230.526 149.182 233.065 140.415 233.552 134.432H222.802V131.753H233.691V124.517H236.544V131.753H250.599C250.599 131.753 250.564 132.831 250.529 133.179C249.834 146.434 248.894 153.079 247.468 154.679C246.737 155.584 245.694 156.036 244.476 156.175C243.328 156.279 241.136 156.175 238.736 156.036L238.701 153.253C240.475 153.392 242.667 153.461 243.467 153.461C244.163 153.461 244.615 153.288 244.998 152.905C246.146 151.826 247.016 145.773 247.642 134.432H236.301Z" fill="black"/>
<path d="M192.363 150.295C191.598 152.313 188.919 154.992 183.387 156.627L182.483 154.296C186.101 153.391 188.571 151.548 189.475 150.295H181.509V147.964H190.415C190.345 147.686 190.345 147.442 190.345 147.234V144.972H185.683V132.065H189.51C189.267 131.474 188.814 130.709 188.327 129.943L188.049 129.491C187.979 129.387 187.91 129.282 187.84 129.178H186.101C185.196 130.569 183.979 131.891 182.726 133.005L180.987 131.196C182.865 129.735 184.953 126.882 185.927 124.377L188.432 125.108C188.153 125.734 187.736 126.499 187.423 127.056H196.085V129.178H190.554C191.076 129.874 191.598 130.848 191.876 131.474L189.928 132.065H196.364C195.807 131.891 194.763 131.265 194.207 131.057C196.19 129.491 198.103 126.812 198.973 124.377L201.582 125.038C201.304 125.699 200.991 126.499 200.608 127.056H211.358V129.178H204.713C205.374 129.804 205.966 130.535 206.314 131.265L204.47 132.065H207.983V144.972H203.635V147.964H211.671V150.295H203.635V156.383H201.026V150.295H192.363ZM196.712 132.065H204.052C203.6 131.439 202.939 130.604 202.243 129.735L202 129.456C201.93 129.387 201.86 129.282 201.791 129.178H199.356C198.451 130.256 197.512 131.23 196.712 132.065ZM188.327 135.718H205.235V133.909H188.327V135.718ZM188.327 139.371H205.235V137.527H188.327V139.371ZM188.327 143.128H205.235V141.145H188.327V143.128ZM192.606 147.964H201.026V144.972H192.85V147.268C192.85 147.477 192.85 147.721 192.606 147.964Z" fill="black"/>
<defs>
<linearGradient id="paint0_linear_406_48" x1="45.486" y1="67" x2="133.485" y2="160.021" gradientUnits="userSpaceOnUse">
<stop stop-color="#1F4CF0"/>
<stop offset="1" stop-color="#8EB5FF"/>
</linearGradient>
</defs>
</svg>
